<svg width="198" height="65" viewBox="0 0 198 65" fill="none" xmlns="http://www.w3.org/2000/svg">
<path fill-rule="evenodd" clip-rule="evenodd" d="M14.7631 64.135H28.0529V0.86502H15.5611L0 10.7818V22.645L14.3948 13.5623H14.7631V64.135ZM0.900312 21.0073L14.1359 12.6561H15.6634V63.2288H27.1526V1.77123H15.8221L0.900312 11.2807V21.0073ZM102.243 32.2482V30.3092L102.962 30.1604C109.109 28.8882 113.508 23.5458 113.538 17.0212C113.507 7.93496 104.812 0.90621 92.3704 0.90621C79.8929 0.90621 71.2051 7.93823 71.2336 17.0195L71.2336 17.0264C71.2048 23.5171 75.5402 28.8867 81.8062 30.1597L82.5284 30.3064V32.2502L81.7738 32.3748C74.4942 33.5765 68.8721 39.688 68.9009 47.1091L68.901 47.1154C68.8866 51.9096 71.2591 56.1251 75.3888 59.1717C79.5294 62.2263 85.4328 64.0938 92.3704 64.0938C106.328 64.0938 115.84 56.6312 115.871 47.1134C115.84 39.6882 110.153 33.5752 102.995 32.3744L102.243 32.2482ZM116.771 47.1126C116.74 57.3693 106.55 65 92.3704 65C78.1905 65 67.9699 57.3693 68.0006 47.1126C67.9715 39.5998 73.3708 33.3973 80.4889 31.7093C80.8348 31.6273 81.1848 31.5559 81.5383 31.4956C81.5682 31.4905 81.5981 31.4855 81.6281 31.4805V31.048C81.6037 31.0431 81.5794 31.0381 81.5552 31.033C81.2008 30.9592 80.8522 30.873 80.5099 30.775C74.4264 29.0331 70.3043 23.55 70.3333 17.0223C70.3026 7.22909 79.6331 0 92.3704 0C105.077 0 114.408 7.22909 114.438 17.0223C114.409 23.5781 110.231 29.0347 104.245 30.7744C103.908 30.8724 103.566 30.9585 103.218 31.0324C103.193 31.0377 103.168 31.0429 103.143 31.048V31.4805C103.174 31.4856 103.205 31.4908 103.235 31.4961C103.582 31.5564 103.926 31.6277 104.267 31.7096C111.285 33.3979 116.742 39.6002 116.771 47.1126ZM84.1313 53.3086C82.0799 51.5223 80.9119 48.9916 80.9119 46.0623C80.9119 39.9932 85.8715 35.7335 92.3704 35.7335C98.8369 35.7335 103.829 39.9915 103.829 46.0623C103.829 49.0081 102.652 51.5392 100.597 53.3215C98.5509 55.0949 95.6902 56.0821 92.3704 56.0821C89.0344 56.0821 86.173 55.0866 84.1313 53.3086ZM85.2251 25.2021C83.4252 23.5245 82.3852 21.1557 82.3852 18.4126C82.3852 15.7003 83.4101 13.367 85.2074 11.7185C86.998 10.0761 89.4967 9.16508 92.3704 9.16508C95.232 9.16508 97.7297 10.0857 99.5221 11.7302C101.321 13.3802 102.356 15.7123 102.356 18.4126C102.356 23.9841 98.0783 27.8145 92.3704 27.8145C89.5187 27.8145 87.0198 26.8749 85.2251 25.2021ZM180.863 37.2473H197.1V27.9998H180.863V11.6572H171.676V27.9998H155.44V37.2473H171.676V53.59H180.863V37.2473ZM181.764 54.4962H170.776V38.1535H154.539V27.0936H170.776V10.751H181.764V27.0936H198V38.1535H181.764V54.4962ZM81.8122 46.0623C81.8122 51.4068 86.0478 55.1759 92.3704 55.1759C98.6624 55.1759 102.929 51.4377 102.929 46.0623C102.929 40.5941 98.4475 36.6397 92.3704 36.6397C86.2626 36.6397 81.8122 40.5941 81.8122 46.0623ZM83.2855 18.4126C83.2855 23.4173 87.0606 26.9083 92.3704 26.9083C97.6495 26.9083 101.455 23.4173 101.455 18.4126C101.455 13.5005 97.7109 10.0713 92.3704 10.0713C86.9993 10.0713 83.2855 13.4696 83.2855 18.4126Z" fill="#7A0000"/>
</svg>
