<svg width="28" height="18" viewBox="0 0 28 18" fill="none" xmlns="http://www.w3.org/2000/svg">
<path fill-rule="evenodd" clip-rule="evenodd" d="M14.2456 0.471193C14.2457 0.470876 14.2459 0.470582 13.7862 0.273859C13.3265 0.0771363 13.3266 0.0768917 13.3267 0.0766716L13.3269 0.0763521L13.3269 0.0761719L13.3264 0.0774569L13.3222 0.0868563C13.318 0.0960959 13.3111 0.111226 13.3013 0.131929C13.2816 0.173339 13.2504 0.237023 13.2064 0.320443C13.1186 0.487303 12.98 0.732981 12.782 1.03721C12.386 1.6457 11.7527 2.48785 10.812 3.40223C8.93354 5.22799 5.81803 7.3532 0.889034 8.47502L1.11096 9.45009C6.22825 8.28541 9.50584 6.06627 11.5089 4.11931C12.509 3.14733 13.1885 2.24602 13.6202 1.58265C13.836 1.25095 13.99 0.978588 14.0912 0.786396C14.1419 0.69029 14.1793 0.614194 14.2047 0.560705C14.2174 0.533959 14.2271 0.51286 14.2339 0.497733L14.242 0.47956L14.2444 0.473906L14.2453 0.471951L14.2456 0.471193Z" fill="black"/>
<path fill-rule="evenodd" clip-rule="evenodd" d="M13.3267 17.85C13.3266 17.8498 13.3265 17.8495 13.7862 17.6528C14.2459 17.4561 14.2457 17.4558 14.2456 17.4555L14.2453 17.4547L14.2444 17.4527L14.242 17.4471L14.2339 17.4289C14.2271 17.4138 14.2174 17.3927 14.2047 17.3659C14.1793 17.3125 14.1419 17.2364 14.0912 17.1403C13.99 16.9481 13.836 16.6757 13.6202 16.344C13.1885 15.6806 12.509 14.7793 11.5089 13.8073C9.50584 11.8604 6.22825 9.64124 1.11096 8.47656L0.889034 9.45163C5.81803 10.5734 8.93354 12.6987 10.812 14.5244C11.7527 15.4388 12.386 16.281 12.782 16.8894C12.98 17.1937 13.1186 17.4393 13.2064 17.6062C13.2504 17.6896 13.2816 17.7533 13.3013 17.7947C13.3111 17.8154 13.318 17.8306 13.3222 17.8398L13.3264 17.8492L13.3267 17.85Z" fill="black"/>
<path fill-rule="evenodd" clip-rule="evenodd" d="M27.4856 8.46289H0.999912V9.46289H27.4856V8.46289Z" fill="black"/>
</svg>
