<svg width="28" height="18" viewBox="0 0 28 18" fill="none" xmlns="http://www.w3.org/2000/svg">
<path fill-rule="evenodd" clip-rule="evenodd" d="M13.7539 0.471193C13.7538 0.470876 13.7536 0.470582 14.2133 0.273859C14.673 0.0771363 14.6729 0.0768917 14.6728 0.0766716L14.6727 0.0763521L14.6726 0.0761719L14.6731 0.0774569L14.6773 0.0868563C14.6815 0.0960959 14.6884 0.111226 14.6983 0.131929C14.7179 0.173339 14.7491 0.237023 14.7931 0.320443C14.8809 0.487303 15.0195 0.732981 15.2175 1.03721C15.6135 1.6457 16.2468 2.48785 17.1876 3.40223C19.066 5.22799 22.1815 7.3532 27.1105 8.47502L26.8886 9.45009C21.7713 8.28541 18.4937 6.06627 16.4906 4.11931C15.4906 3.14733 14.811 2.24602 14.3793 1.58265C14.1635 1.25095 14.0095 0.978588 13.9083 0.786396C13.8577 0.69029 13.8202 0.614194 13.7948 0.560705C13.7821 0.533959 13.7725 0.51286 13.7656 0.497733L13.7575 0.47956L13.7551 0.473906L13.7542 0.471951L13.7539 0.471193Z" fill="black"/>
<path fill-rule="evenodd" clip-rule="evenodd" d="M14.6728 17.848C14.6729 17.8478 14.673 17.8476 14.2133 17.6508C13.7536 17.4541 13.7538 17.4538 13.7539 17.4535L13.7542 17.4527L13.7551 17.4508L13.7575 17.4451L13.7656 17.427C13.7725 17.4118 13.7821 17.3907 13.7948 17.364C13.8202 17.3105 13.8577 17.2344 13.9083 17.1383C14.0095 16.9461 14.1635 16.6738 14.3793 16.3421C14.811 15.6787 15.4906 14.7774 16.4906 13.8054C18.4937 11.8584 21.7713 9.63929 26.8886 8.47461L27.1105 9.44967C22.1815 10.5715 19.066 12.6967 17.1876 14.5225C16.2468 15.4368 15.6135 16.279 15.2175 16.8875C15.0195 17.1917 14.8809 17.4374 14.7931 17.6043C14.7491 17.6877 14.7179 17.7514 14.6983 17.7928C14.6884 17.8135 14.6815 17.8286 14.6773 17.8378L14.6731 17.8472L14.6728 17.848Z" fill="black"/>
<path fill-rule="evenodd" clip-rule="evenodd" d="M0.51416 8.46289H26.9998V9.46289H0.51416V8.46289Z" fill="black"/>
</svg>
