<?xml version="1.0" standalone="no"?>
<!DOCTYPE svg PUBLIC "-//W3C//DTD SVG 20010904//EN" "http://www.w3.org/TR/2001/REC-SVG-20010904/DTD/svg10.dtd">
<svg version="1.0" xmlns="http://www.w3.org/2000/svg" width="36" height="29"
    viewBox="0 0 616.000000 428.000000" preserveAspectRatio="xMidYMid meet">
    <metadata>
        Created by potrace 1.16, written by Peter Selinger 2001-2019
    </metadata>
    <g transform="translate(0.000000,428.000000) scale(0.100000,-0.100000)" fill="#fff" stroke="none">
        <path d="M2554 4215 c-4 -8 -12 -15 -20 -15 -12 0 -14 -59 -14 -363 l0 -364
-25 -13 c-14 -7 -25 -17 -25 -22 0 -4 -14 -8 -30 -8 -18 0 -33 -6 -36 -15 -4
-9 -19 -15 -35 -15 -17 0 -32 -6 -35 -15 -4 -8 -14 -15 -24 -15 -10 0 -25 -6
-32 -12 -7 -7 -35 -24 -61 -38 -26 -13 -47 -30 -47 -37 0 -8 -12 -13 -30 -13
-20 0 -30 -5 -30 -15 0 -8 -7 -15 -15 -15 -9 0 -18 -7 -21 -15 -4 -8 -17 -15
-30 -15 -14 0 -27 -7 -30 -15 -4 -8 -12 -15 -20 -15 -8 0 -14 -7 -14 -15 0 -8
-7 -15 -15 -15 -8 0 -24 -9 -35 -20 -11 -11 -25 -20 -30 -20 -6 0 -13 -7 -16
-15 -4 -8 -12 -15 -20 -15 -8 0 -14 -7 -14 -15 0 -8 -7 -15 -15 -15 -8 0 -15
-7 -15 -15 0 -8 -7 -15 -15 -15 -8 0 -15 -7 -15 -15 0 -8 -6 -15 -13 -15 -11
0 -116 -98 -158 -148 -14 -16 -25 -19 -65 -14 -27 2 -53 11 -57 18 -5 9 -26
14 -52 14 -33 0 -45 4 -45 15 0 11 -12 15 -50 15 -38 0 -50 4 -50 15 0 11 -12
15 -44 15 -30 0 -46 5 -50 15 -4 10 -20 15 -50 15 -29 0 -46 5 -49 14 -3 8
-23 18 -44 21 -21 3 -50 13 -65 21 -14 8 -45 14 -67 14 -30 0 -41 4 -41 15 0
11 -12 15 -50 15 -38 0 -50 4 -50 15 0 11 -12 15 -44 15 -30 0 -46 5 -50 15
-4 10 -20 15 -51 15 -32 0 -45 4 -45 14 0 10 -16 17 -47 22 -27 4 -51 11 -54
16 -3 5 -26 12 -50 15 -24 4 -50 12 -57 20 -7 7 -31 13 -52 13 -21 0 -45 7
-54 15 -9 10 -34 15 -70 15 -43 0 -56 -3 -56 -15 0 -8 -9 -15 -20 -15 -11 0
-20 -7 -20 -15 0 -8 -7 -15 -15 -15 -13 0 -15 -152 -15 -1304 l0 -1305 24 -25
c22 -25 28 -26 133 -26 86 0 113 3 123 15 7 8 25 15 40 15 39 0 60 9 60 26 0
10 14 14 49 14 31 0 55 6 65 15 8 8 32 15 56 15 27 0 43 5 46 15 4 11 21 15
55 15 37 0 49 4 49 15 0 11 12 15 45 15 31 0 47 5 51 15 4 9 19 15 40 15 36 0
84 18 84 32 0 4 20 8 45 8 31 0 47 5 51 15 4 10 20 15 50 15 30 0 46 5 50 15
4 10 20 15 50 15 30 0 46 5 50 15 4 10 20 15 49 15 24 0 48 6 54 14 6 7 32 16
58 19 26 3 52 12 58 21 16 21 75 22 75 1 0 -8 7 -15 15 -15 8 0 15 -4 15 -10
0 -10 75 -90 84 -90 3 0 22 -16 43 -35 21 -19 44 -35 51 -35 6 0 12 -7 12 -15
0 -8 7 -15 15 -15 8 0 15 -7 15 -15 0 -8 6 -15 14 -15 8 0 16 -7 20 -15 3 -8
12 -15 21 -15 8 0 15 -7 15 -15 0 -10 10 -15 30 -15 17 0 30 -5 30 -11 0 -15
42 -59 56 -59 6 0 17 -7 24 -15 7 -8 21 -15 31 -15 11 0 19 -7 19 -15 0 -10
10 -15 30 -15 20 0 30 -5 30 -15 0 -8 6 -15 14 -15 8 0 16 -6 19 -14 3 -8 19
-17 35 -21 17 -3 33 -13 36 -21 3 -8 17 -14 31 -14 16 0 25 -6 25 -15 0 -10
10 -15 30 -15 18 0 33 -6 36 -15 4 -9 19 -15 35 -15 19 0 29 -5 29 -15 0 -10
10 -15 30 -15 17 0 39 -9 50 -20 11 -11 33 -20 49 -20 16 0 31 -6 35 -15 4
-10 20 -15 51 -15 33 0 45 -4 45 -15 0 -11 12 -15 44 -15 30 0 46 -5 50 -15 4
-11 21 -15 66 -15 47 0 60 -3 60 -15 0 -12 16 -15 80 -15 61 0 80 -3 80 -14 0
-19 45 -26 172 -26 84 0 113 -3 124 -15 22 -21 266 -21 308 0 20 11 60 15 141
15 129 0 175 7 175 26 0 11 19 14 80 14 64 0 80 3 80 15 0 11 13 15 54 15 35
0 60 5 70 15 8 8 32 15 56 15 27 0 43 5 46 15 4 9 19 15 39 15 19 0 40 7 49
15 8 8 25 15 38 15 14 0 34 9 46 20 12 11 33 20 47 20 14 0 28 7 31 15 4 9 19
15 35 15 17 0 32 6 35 15 4 9 19 15 35 15 19 0 29 5 29 15 0 8 9 15 19 15 11
0 26 6 33 13 7 7 26 19 42 27 59 30 66 35 66 47 0 8 12 13 29 13 16 0 31 6 35
15 3 8 12 15 21 15 8 0 15 7 15 15 0 9 9 15 23 15 13 0 36 15 54 35 18 19 37
35 43 35 5 0 10 7 10 15 0 9 9 15 25 15 14 0 28 7 31 15 4 8 12 15 20 15 8 0
14 7 14 15 0 8 4 15 9 15 14 0 61 45 61 59 0 6 7 11 15 11 8 0 15 7 15 15 0 8
7 15 15 15 8 0 15 7 15 15 0 8 7 15 15 15 8 0 15 7 15 15 0 8 6 15 13 15 15 0
57 44 57 59 0 6 7 11 15 11 8 0 15 7 15 15 0 8 7 15 15 15 8 0 15 7 15 15 0 8
7 15 15 15 8 0 15 5 15 10 0 6 13 24 30 40 16 16 32 40 36 54 3 14 12 26 20
26 8 0 14 7 14 15 0 8 7 15 15 15 8 0 15 9 15 19 0 10 7 21 15 25 8 3 15 17
15 31 0 16 6 25 15 25 9 0 19 8 22 18 4 9 13 23 20 30 7 7 13 19 13 27 0 7 7
15 15 19 9 3 15 18 15 36 0 20 5 30 15 30 10 0 15 10 15 30 0 20 5 30 15 30
10 0 15 10 15 30 0 19 5 30 14 30 15 0 26 21 26 51 0 10 7 19 15 19 10 0 15
10 15 29 0 16 6 31 15 35 9 3 15 18 15 40 0 19 7 41 15 50 8 8 15 28 15 44 0
16 7 35 15 42 8 7 15 26 15 42 0 16 -6 31 -15 34 -10 4 -15 20 -15 50 0 32 -4
44 -15 44 -10 0 -15 10 -15 34 0 21 -6 36 -15 40 -9 3 -15 18 -15 35 0 16 -7
36 -15 44 -7 8 -17 27 -21 42 -4 14 -13 29 -20 32 -8 3 -14 18 -14 34 0 19 -5
29 -15 29 -10 0 -15 10 -15 30 0 20 -5 30 -15 30 -8 0 -15 9 -15 19 0 10 -7
21 -15 25 -8 3 -15 17 -15 31 0 15 -6 25 -14 25 -8 0 -17 13 -21 30 -4 17 -13
30 -21 30 -8 0 -14 9 -14 20 0 11 -7 20 -15 20 -8 0 -15 8 -15 19 0 10 -7 24
-15 31 -8 7 -15 19 -15 26 0 8 -7 14 -15 14 -8 0 -15 5 -15 12 0 6 -7 18 -15
27 -8 9 -23 26 -35 39 -11 12 -20 29 -20 37 0 8 -7 15 -15 15 -8 0 -15 7 -15
15 0 8 -7 15 -15 15 -8 0 -15 4 -15 10 0 14 -75 90 -88 90 -7 0 -12 7 -12 15
0 8 -7 15 -15 15 -8 0 -15 7 -15 15 0 8 -7 15 -15 15 -8 0 -15 4 -15 9 0 14
-45 61 -59 61 -6 0 -11 7 -11 15 0 8 -7 15 -15 15 -8 0 -15 7 -15 15 0 9 -9
15 -24 15 -13 0 -26 7 -30 15 -3 8 -12 15 -21 15 -8 0 -15 7 -15 15 0 8 -4 15
-8 15 -5 0 -24 14 -42 30 -19 17 -45 33 -57 36 -13 4 -23 12 -23 20 0 8 -8 14
-19 14 -10 0 -24 7 -31 15 -7 8 -21 15 -31 15 -11 0 -19 7 -19 15 0 9 -12 18
-29 21 -17 4 -32 12 -35 20 -3 8 -14 14 -24 14 -11 0 -25 7 -32 15 -7 8 -18
15 -25 15 -7 0 -15 7 -19 15 -3 9 -18 15 -35 15 -16 0 -31 6 -35 15 -3 10 -19
15 -45 15 -30 0 -40 4 -44 20 -3 13 -14 20 -30 20 -14 0 -27 7 -31 15 -3 9
-18 15 -40 15 -19 0 -41 7 -50 15 -8 8 -26 15 -41 15 -14 0 -28 7 -31 15 -5
11 -22 15 -65 15 -46 0 -59 3 -59 15 0 10 -10 15 -30 15 -29 0 -30 2 -30 45 0
30 -5 47 -14 51 -8 3 -16 18 -20 35 -3 17 -12 29 -21 29 -8 0 -15 9 -15 20 0
11 -7 20 -15 20 -8 0 -15 8 -15 18 0 20 -44 65 -72 75 -10 4 -18 11 -18 17 0
5 -9 10 -20 10 -11 0 -20 6 -20 13 0 17 -34 45 -64 53 -14 3 -27 12 -30 20 -3
8 -19 14 -36 14 -20 0 -30 5 -30 15 0 10 -10 15 -30 15 -20 0 -30 5 -30 15 0
11 -11 15 -38 15 -26 0 -45 7 -57 20 -10 11 -30 20 -45 20 -14 0 -35 7 -46 15
-10 8 -38 15 -60 15 -28 0 -44 5 -48 15 -4 11 -21 15 -63 15 -35 1 -66 6 -77
15 -14 10 -45 15 -98 15 -61 0 -80 3 -84 15 -5 13 -48 15 -300 15 -253 0 -295
-2 -300 -15z m570 -321 c13 -9 46 -14 92 -14 55 0 73 -4 78 -15 4 -11 21 -15
66 -15 47 0 60 -3 60 -15 0 -11 12 -15 50 -15 38 0 50 -4 50 -15 0 -11 12 -15
45 -15 34 0 45 -4 45 -15 0 -9 13 -18 31 -22 17 -3 33 -12 36 -19 3 -8 18 -14
34 -14 19 0 29 -5 29 -15 0 -8 6 -15 14 -15 8 0 17 -7 20 -16 5 -14 -7 -16
-106 -14 -62 2 -202 2 -310 1 -160 -1 -199 -4 -212 -16 -9 -9 -33 -15 -64 -15
-69 0 -112 -10 -112 -26 0 -10 -16 -14 -60 -14 -45 0 -62 -4 -66 -15 -4 -8
-12 -15 -20 -15 -11 0 -14 32 -14 178 l0 177 147 -3 c106 -3 152 -7 167 -18z
m792 -539 c11 -11 37 -15 89 -15 56 0 74 -4 79 -15 4 -10 20 -15 52 -15 31 0
51 -5 59 -16 6 -9 32 -18 58 -21 26 -3 52 -12 58 -19 6 -8 24 -14 39 -14 15 0
33 -7 40 -15 7 -8 28 -15 47 -15 21 0 36 -6 39 -15 4 -9 19 -15 35 -15 19 0
29 -5 29 -15 0 -10 10 -15 29 -15 16 0 31 -6 34 -14 3 -8 19 -17 35 -21 17 -3
33 -13 36 -21 3 -8 17 -14 31 -14 16 0 25 -6 25 -15 0 -8 8 -15 19 -15 10 0
24 -7 31 -15 7 -8 21 -15 31 -15 11 0 19 -7 19 -15 0 -10 10 -15 30 -15 17 0
30 -5 30 -11 0 -15 42 -59 56 -59 7 0 14 -7 18 -15 3 -8 17 -15 31 -15 16 0
25 -6 25 -15 0 -8 7 -15 15 -15 8 0 15 -7 15 -15 0 -8 7 -15 15 -15 8 0 15 -6
15 -14 0 -8 9 -18 20 -21 11 -3 20 -13 20 -21 0 -8 4 -14 9 -14 13 0 181 -168
181 -180 0 -6 7 -10 15 -10 8 0 15 -7 15 -15 0 -8 7 -15 15 -15 8 0 15 -7 15
-15 0 -8 7 -15 15 -15 9 0 15 -9 15 -22 1 -24 42 -78 60 -78 5 0 10 -8 10 -19
0 -10 7 -24 15 -31 8 -7 15 -18 15 -25 0 -7 7 -15 15 -19 8 -3 15 -14 15 -24
0 -11 7 -25 15 -32 8 -7 15 -19 15 -26 0 -8 7 -14 15 -14 8 0 15 -9 15 -20 0
-11 9 -28 20 -37 11 -10 20 -30 20 -45 0 -18 5 -28 15 -28 10 0 15 -10 15 -30
0 -20 5 -30 15 -30 10 0 15 -10 15 -32 0 -17 6 -39 14 -47 24 -27 25 -151 1
-151 -10 0 -15 -10 -15 -30 0 -18 -6 -33 -15 -36 -9 -4 -15 -19 -15 -35 0 -19
-5 -29 -15 -29 -10 0 -15 -10 -15 -29 0 -16 -6 -31 -14 -34 -8 -3 -17 -19 -21
-36 -4 -17 -13 -31 -21 -31 -9 0 -14 -11 -14 -30 0 -20 -5 -30 -15 -30 -8 0
-15 -6 -15 -14 0 -7 -7 -19 -15 -26 -8 -7 -15 -20 -15 -30 0 -10 -7 -20 -15
-24 -8 -3 -15 -12 -15 -21 0 -8 -6 -15 -14 -15 -8 0 -17 -14 -21 -30 -4 -17
-13 -30 -21 -30 -8 0 -14 -6 -14 -14 0 -8 -7 -16 -15 -20 -8 -3 -15 -12 -15
-21 0 -8 -7 -15 -15 -15 -8 0 -15 -6 -15 -14 0 -8 -7 -16 -15 -20 -8 -3 -15
-11 -15 -18 -1 -17 -46 -68 -60 -68 -5 0 -10 -6 -10 -14 0 -8 -7 -16 -15 -20
-8 -3 -15 -12 -15 -21 0 -8 -7 -15 -15 -15 -8 0 -15 -6 -15 -14 0 -7 -8 -17
-17 -20 -34 -12 -73 -37 -73 -46 0 -5 -9 -12 -20 -15 -11 -3 -20 -13 -20 -21
0 -8 -7 -14 -15 -14 -8 0 -15 -7 -15 -15 0 -8 -7 -15 -15 -15 -8 0 -15 -7 -15
-15 0 -9 -9 -15 -25 -15 -14 0 -28 -7 -31 -15 -4 -8 -13 -15 -20 -15 -8 0 -17
-7 -20 -15 -4 -8 -12 -15 -20 -15 -8 0 -14 -5 -14 -11 0 -5 -13 -15 -29 -20
-16 -6 -32 -17 -35 -25 -3 -8 -15 -14 -26 -14 -11 0 -23 -7 -26 -15 -4 -8 -15
-15 -25 -15 -10 0 -19 -7 -19 -15 0 -10 -10 -15 -29 -15 -16 0 -31 -6 -35 -15
-3 -8 -17 -15 -31 -15 -14 0 -28 -7 -31 -15 -4 -8 -16 -15 -28 -15 -12 0 -32
-9 -44 -20 -12 -11 -35 -20 -52 -20 -18 0 -33 -6 -36 -15 -4 -8 -18 -15 -33
-15 -15 0 -36 -7 -47 -15 -10 -8 -33 -15 -50 -15 -17 0 -37 -7 -44 -15 -8 -10
-30 -15 -61 -15 -30 0 -51 -5 -56 -14 -5 -8 -34 -15 -77 -19 -49 -3 -72 -10
-78 -21 -7 -13 -29 -16 -122 -16 -89 0 -116 -3 -126 -15 -18 -22 -288 -22
-296 0 -5 12 -30 15 -135 15 -103 0 -129 3 -129 14 0 17 -30 26 -87 26 -23 0
-43 5 -45 12 -2 6 -31 13 -66 16 -44 3 -62 8 -62 18 0 10 -13 14 -44 14 -30 0
-46 5 -50 15 -4 10 -20 15 -51 15 -33 0 -45 4 -45 15 0 10 -10 15 -30 15 -20
0 -30 5 -30 15 0 8 -14 17 -35 21 -19 3 -35 10 -35 14 0 4 -12 11 -26 14 -15
4 -33 14 -41 21 -8 8 -23 15 -34 15 -11 0 -22 7 -25 15 -4 9 -19 15 -35 15
-19 0 -29 5 -29 15 0 10 -10 15 -30 15 -18 0 -30 5 -30 13 0 18 -55 57 -80 57
-11 0 -20 7 -20 15 0 8 -7 15 -15 15 -8 0 -15 7 -15 15 0 8 -7 15 -15 15 -9 0
-18 7 -21 15 -4 8 -17 15 -30 15 -15 0 -24 6 -24 16 0 9 -9 18 -20 21 -11 3
-20 12 -20 19 0 8 -7 14 -15 14 -8 0 -15 7 -15 15 0 8 -7 15 -15 15 -8 0 -15
7 -15 15 0 8 -6 15 -14 15 -8 0 -16 7 -20 15 -3 8 -12 15 -21 15 -8 0 -15 7
-15 15 0 8 -7 15 -15 15 -8 0 -15 6 -15 13 0 7 -13 24 -30 37 -16 14 -29 31
-30 38 0 6 -7 12 -15 12 -8 0 -15 7 -15 15 0 8 -4 15 -10 15 -12 0 -60 48 -60
60 0 16 -216 13 -232 -3 -7 -8 -33 -16 -57 -20 -25 -3 -48 -12 -53 -21 -6 -11
-23 -16 -53 -16 -33 0 -45 -4 -45 -15 0 -11 -12 -15 -50 -15 -38 0 -50 -4 -50
-15 0 -11 -12 -15 -45 -15 -31 0 -47 -5 -51 -15 -4 -10 -20 -15 -49 -15 -27 0
-45 -5 -48 -14 -3 -7 -26 -16 -53 -19 -27 -3 -53 -12 -59 -21 -8 -10 -27 -16
-54 -16 -28 0 -44 -5 -47 -15 -4 -10 -20 -15 -50 -15 -30 0 -46 -5 -50 -15 -4
-10 -20 -15 -50 -15 -30 0 -46 -5 -50 -15 -4 -10 -20 -15 -50 -15 -32 0 -44
-4 -44 -15 0 -10 -10 -15 -34 -15 -44 0 -66 -9 -66 -26 0 -8 -7 -14 -15 -14
-13 0 -15 36 -15 260 l0 260 365 0 c318 0 365 2 365 15 0 8 6 15 14 15 21 0
26 23 26 122 0 81 -2 90 -20 95 -11 3 -20 12 -20 19 0 12 -61 14 -365 14
l-365 0 0 180 0 180 365 0 c318 0 365 2 365 15 0 8 6 15 14 15 21 0 26 23 26
122 0 81 -2 90 -20 95 -11 3 -20 12 -20 19 0 12 -61 14 -365 14 l-365 0 0 275
0 275 44 0 c30 0 46 -5 50 -15 4 -10 20 -15 51 -15 32 0 45 -4 45 -14 0 -14
29 -26 68 -26 13 0 30 -7 38 -15 9 -8 33 -15 55 -15 23 0 47 -7 55 -15 9 -9
34 -15 60 -15 32 0 44 -4 44 -15 0 -11 12 -15 50 -15 38 0 50 -4 50 -15 0 -11
12 -15 50 -15 36 0 50 -4 50 -14 0 -15 30 -26 76 -26 17 0 37 -7 44 -15 8 -9
30 -15 56 -15 32 0 44 -4 44 -15 0 -11 12 -15 45 -15 31 0 47 -5 51 -15 4 -10
20 -15 50 -15 30 0 46 -5 50 -15 5 -12 28 -15 123 -15 l116 0 38 35 c20 18 37
39 37 44 0 6 7 11 15 11 8 0 15 6 15 14 0 8 7 16 15 20 8 3 15 12 15 21 0 8 7
15 15 15 8 0 15 7 15 15 0 8 7 15 15 15 9 0 18 7 21 15 4 8 12 15 20 15 8 0
14 7 14 15 0 8 7 15 15 15 8 0 15 5 15 10 0 16 53 59 73 60 9 0 17 7 17 15 0
8 7 15 15 15 9 0 18 7 21 15 4 8 12 15 20 15 8 0 14 6 14 14 0 8 12 17 27 21
15 3 40 20 55 36 16 16 37 29 47 29 10 0 21 7 25 15 3 8 12 15 21 15 8 0 15 7
15 15 0 10 10 15 30 15 20 0 30 5 30 15 0 9 9 15 24 15 14 0 31 7 39 15 8 7
26 17 41 21 14 3 26 12 26 20 0 9 11 14 30 14 18 0 33 6 36 15 4 9 19 15 35
15 19 0 29 5 29 15 0 11 11 15 40 15 27 0 43 5 46 15 4 9 19 15 39 15 18 0 38
6 44 14 6 7 32 16 58 19 26 3 52 12 58 21 9 11 28 16 69 16 43 0 56 3 56 15 0
12 16 15 80 15 62 0 82 3 86 15 5 13 51 15 326 15 271 0 322 -2 334 -15z" />
        <path d="M4544 2745 c-4 -9 -19 -15 -35 -15 -16 0 -29 -5 -29 -11 0 -5 -13
-15 -29 -20 -16 -6 -32 -17 -35 -25 -3 -8 -12 -14 -21 -14 -8 0 -15 -6 -15
-14 0 -8 -7 -16 -15 -20 -8 -3 -15 -16 -15 -30 0 -15 -7 -25 -20 -29 -15 -4
-20 -14 -20 -36 0 -21 -5 -31 -15 -31 -22 0 -22 -298 -1 -306 8 -3 17 -21 20
-40 4 -20 13 -34 21 -34 8 0 15 -7 15 -15 0 -8 6 -15 13 -15 7 0 17 -10 22
-22 6 -13 20 -27 33 -33 12 -5 22 -16 22 -23 0 -7 8 -16 18 -19 9 -4 23 -13
30 -20 7 -7 28 -13 47 -13 20 0 35 -6 39 -15 4 -12 26 -15 106 -15 77 0 105 4
116 15 9 8 31 15 50 15 21 0 37 6 40 14 3 8 19 18 35 21 16 4 29 13 29 21 0 8
7 14 15 14 8 0 15 7 15 15 0 8 7 15 15 15 9 0 19 8 22 18 4 9 13 23 20 30 7 7
13 22 13 33 0 10 7 19 15 19 11 0 15 12 15 49 0 34 4 51 15 55 12 4 15 24 15
86 0 62 -3 82 -15 86 -10 4 -15 20 -15 50 0 30 -5 46 -15 50 -8 4 -15 14 -15
24 0 10 -7 25 -15 34 -8 8 -15 19 -15 25 0 6 -6 11 -13 11 -8 0 -27 16 -43 35
-17 21 -38 35 -51 35 -14 0 -23 6 -23 15 0 10 -11 15 -35 15 -24 0 -35 5 -35
15 0 13 -22 15 -135 15 -111 0 -137 -3 -141 -15z m204 -318 c6 -5 12 -16 12
-24 0 -7 7 -16 15 -19 8 -4 15 -13 15 -20 0 -8 -7 -17 -15 -20 -8 -4 -15 -10
-15 -15 0 -5 -9 -18 -20 -29 -25 -25 -110 -29 -110 -5 0 8 -7 15 -15 15 -11 0
-15 12 -15 50 0 38 4 50 15 50 8 0 15 6 15 14 0 25 87 27 118 3z" />
        <path d="M2610 2325 c-7 -8 -23 -15 -36 -15 -15 0 -24 -6 -24 -15 0 -8 -7 -15
-15 -15 -11 0 -15 -12 -15 -49 0 -31 -5 -51 -12 -53 -10 -4 -14 -132 -16 -588
-2 -534 -1 -584 14 -601 10 -11 23 -19 29 -19 7 0 15 -7 19 -15 4 -12 30 -15
146 -15 118 0 140 2 140 15 0 12 14 15 65 15 51 0 65 3 65 15 0 11 12 15 45
15 33 0 45 4 45 15 0 8 9 15 19 15 30 0 51 11 51 26 0 9 11 14 30 14 20 0 30
5 30 15 0 10 10 15 30 15 18 0 33 6 36 15 4 8 12 15 20 15 8 0 14 7 14 15 0 8
9 15 20 15 10 0 34 16 53 35 19 19 39 35 46 35 6 0 11 7 11 15 0 8 7 15 15 15
8 0 15 7 15 15 0 8 7 15 15 15 8 0 15 7 15 15 0 8 7 15 15 15 8 0 15 4 15 10
0 12 48 60 60 60 6 0 10 6 10 14 0 8 7 16 15 20 8 3 15 17 15 31 0 16 6 25 15
25 8 0 15 9 15 20 0 11 7 20 15 20 10 0 15 10 15 29 0 20 6 30 20 34 13 3 20
14 20 30 0 14 7 27 15 31 9 3 15 18 15 36 0 20 5 30 15 30 10 0 15 10 15 29 0
16 7 34 15 41 10 8 15 31 15 66 0 41 4 54 15 54 13 0 15 28 15 190 0 162 -2
190 -15 190 -8 0 -15 7 -15 15 0 13 -69 15 -559 15 -488 0 -560 2 -565 15 -3
8 -16 15 -29 15 -14 0 -30 -7 -37 -15z m900 -329 c0 -21 -6 -36 -15 -40 -10
-3 -15 -19 -15 -45 0 -25 -5 -41 -15 -45 -9 -3 -15 -18 -15 -36 0 -20 -5 -30
-15 -30 -10 0 -15 -10 -15 -30 0 -20 -5 -30 -15 -30 -8 0 -15 -9 -15 -20 0
-11 -6 -20 -14 -20 -8 0 -17 -13 -21 -30 -4 -16 -13 -30 -21 -30 -8 0 -14 -7
-14 -15 0 -8 -7 -15 -15 -15 -8 0 -15 -6 -15 -14 0 -8 -7 -16 -15 -20 -8 -3
-15 -12 -15 -21 0 -8 -7 -15 -15 -15 -8 0 -15 -7 -15 -15 0 -8 -7 -15 -15 -15
-8 0 -15 -7 -15 -15 0 -8 -7 -15 -15 -15 -9 0 -18 -7 -21 -15 -4 -8 -12 -15
-20 -15 -8 0 -14 -7 -14 -15 0 -8 -9 -15 -20 -15 -11 0 -36 -16 -56 -35 -21
-20 -46 -35 -60 -35 -15 0 -24 -6 -24 -15 0 -10 -10 -15 -28 -15 -16 0 -37 -7
-48 -15 -10 -8 -34 -15 -51 -15 l-33 0 0 370 0 370 350 0 350 0 0 -34z" />
    </g>
</svg>