<svg width="26" height="23" viewBox="0 0 26 23" fill="none" xmlns="http://www.w3.org/2000/svg">
    <path fill-rule="evenodd" clip-rule="evenodd"
        d="M15.9802 0.795377C16.837 0.43921 17.7555 0.255859 18.6831 0.255859C19.6107 0.255859 20.5292 0.43921 21.386 0.795377C22.2427 1.1515 23.021 1.67338 23.6764 2.3311C24.3321 2.98862 24.8521 3.76918 25.2069 4.62812C25.5617 5.48705 25.7442 6.40761 25.7442 7.33722C25.7442 8.26684 25.5617 9.1874 25.2069 10.0463C24.8522 10.9052 24.3322 11.6857 23.6765 12.3432C23.6764 12.3433 23.6765 12.3432 23.6765 12.3432L13.5268 22.5254C13.3872 22.6655 13.1975 22.7442 12.9997 22.7442C12.802 22.7442 12.6123 22.6655 12.4727 22.5254L2.323 12.3432C0.999157 11.0151 0.255859 9.21439 0.255859 7.33722C0.255859 5.46006 0.999157 3.6593 2.323 2.33122C3.64691 1.00306 5.44304 0.256475 7.31638 0.256475C9.18971 0.256475 10.9858 1.00306 12.3098 2.33122L12.9997 3.02342L13.6896 2.33134C13.6896 2.3313 13.6896 2.33139 13.6896 2.33134C14.345 1.67357 15.1234 1.15152 15.9802 0.795377ZM22.6222 3.38185C22.1048 2.86252 21.4906 2.45068 20.8147 2.16974C20.1389 1.8888 19.4145 1.74423 18.6831 1.74423C17.9517 1.74423 17.2273 1.8888 16.5515 2.16974C15.8756 2.45068 15.2614 2.86252 14.744 3.38185L13.5268 4.60292C13.3872 4.74299 13.1975 4.82173 12.9997 4.82173C12.802 4.82173 12.6123 4.74299 12.4727 4.60292L11.2556 3.38197C10.2105 2.33346 8.79343 1.74485 7.31638 1.74485C5.83932 1.74485 4.42228 2.33346 3.37712 3.38197C2.33187 4.43057 1.74423 5.85327 1.74423 7.33722C1.74423 8.82118 2.33187 10.2439 3.37712 11.2925L12.9997 20.9459L22.6224 11.2925C23.14 10.7734 23.5509 10.1568 23.8312 9.47815C24.1116 8.79948 24.2559 8.07198 24.2559 7.33722C24.2559 6.60247 24.1116 5.87497 23.8312 5.1963C23.5509 4.51764 23.1399 3.90094 22.6222 3.38185Z"
        fill="black" />
</svg>


