<svg width="32" height="21" viewBox="0 0 32 21" fill="none" xmlns="http://www.w3.org/2000/svg">
<path fill-rule="evenodd" clip-rule="evenodd" d="M16.458 19.8002C16.4581 19.8006 16.4583 19.8009 16 20.0008C15.5417 20.2007 15.5418 20.201 15.5419 20.2012L15.5412 20.1997L15.5361 20.1883C15.531 20.1772 15.5226 20.1594 15.5109 20.1351C15.4874 20.0866 15.4503 20.0124 15.3983 19.9155C15.2942 19.7216 15.1305 19.4369 14.8969 19.0847C14.4297 18.3804 13.6831 17.4065 12.5746 16.3495C10.3607 14.2384 6.69136 11.7839 0.891024 10.4888L1.10894 9.51281C7.09432 10.8493 10.925 13.3948 13.2647 15.6258C14.433 16.7398 15.2265 17.7725 15.7303 18.532C15.9821 18.9117 16.1616 19.2232 16.2794 19.4426C16.3383 19.5523 16.3817 19.639 16.4111 19.6997C16.4258 19.73 16.4369 19.7539 16.4448 19.7709L16.454 19.7912L16.4567 19.7974L16.458 19.8002Z" fill="#7A0000"/>
<path fill-rule="evenodd" clip-rule="evenodd" d="M15.5504 0.781459C15.5503 0.781693 15.5501 0.781954 16.0001 1.00003C16.45 1.21811 16.4499 1.21843 16.4497 1.21876L16.4493 1.21956L16.4483 1.22161L16.4454 1.22752L16.4358 1.24644C16.4278 1.26217 16.4164 1.28407 16.4015 1.31182C16.3717 1.36731 16.3277 1.44618 16.2684 1.54573C16.1496 1.74482 15.9691 2.02672 15.7162 2.36987C15.2103 3.05627 14.4149 3.98762 13.2454 4.99131C10.9035 7.00111 7.07524 9.28919 1.09859 10.4902L0.901571 9.50983C6.71064 8.34246 10.3824 6.13054 12.5941 4.23245C13.7014 3.28219 14.4461 2.40762 14.9112 1.77658C15.1438 1.46102 15.3064 1.20632 15.4095 1.03349C15.4611 0.947085 15.4977 0.881163 15.5207 0.838354C15.5322 0.816952 15.5403 0.80133 15.5452 0.79182L15.55 0.782179L15.5504 0.781459Z" fill="#7A0000"/>
<path fill-rule="evenodd" clip-rule="evenodd" d="M32 10.5L0.999998 10.5L0.999998 9.5L32 9.5L32 10.5Z" fill="#7A0000"/>
</svg>
