<?xml version="1.0" encoding="UTF-8" standalone="no" ?>
<!DOCTYPE svg PUBLIC "-//W3C//DTD SVG 1.1//EN" "http://www.w3.org/Graphics/SVG/1.1/DTD/svg11.dtd">
<svg xmlns="http://www.w3.org/2000/svg" xmlns:xlink="http://www.w3.org/1999/xlink" version="1.1" width="400" height="400" viewBox="0 0 400 400" xml:space="preserve">
<desc>Created with Fabric.js 3.6.2</desc>
<defs>
</defs>
<g transform="matrix(4 0 0 4 200 200.77)" id="Layer_1"  >
<path style="stroke: none; stroke-width: 1; stroke-dasharray: none; stroke-linecap: butt; stroke-dashoffset: 0; stroke-linejoin: miter; stroke-miterlimit: 4; fill: rgb(0,0,0); fill-rule: nonzero; opacity: 1;"  transform=" translate(-25, -25.19)" d="M 8 20 c 0 12.981 15.643 28.086 16.309 28.723 L 25 49.383 l 0.691 -0.661 C 26.357 48.086 42 32.981 42 20 c 0 -8.765 -4.452 -19 -17 -19 S 8 11.235 8 20 z M 40 20 c 0 10.642 -11.966 23.5 -15 26.588 C 21.966 43.5 10 30.642 10 20 C 10 7.466 17.749 3 25 3 S 40 7.466 40 20 z" stroke-linecap="round" />
</g>
<g transform="matrix(4 0 0 4 200 168)" id="Layer_1"  >
<path style="stroke: none; stroke-width: 1; stroke-dasharray: none; stroke-linecap: butt; stroke-dashoffset: 0; stroke-linejoin: miter; stroke-miterlimit: 4; fill: rgb(0,0,0); fill-rule: nonzero; opacity: 1;"  transform=" translate(-25, -17)" d="M 15 17 c 0 5.514 4.486 10 10 10 s 10 -4.486 10 -10 S 30.514 7 25 7 S 15 11.486 15 17 z M 33 17 c 0 4.411 -3.589 8 -8 8 s -8 -3.589 -8 -8 s 3.589 -8 8 -8 S 33 12.589 33 17 z" stroke-linecap="round" />
</g>
</svg>