<?xml version="1.0" encoding="UTF-8" standalone="no" ?>
<!DOCTYPE svg PUBLIC "-//W3C//DTD SVG 1.1//EN" "http://www.w3.org/Graphics/SVG/1.1/DTD/svg11.dtd">
<svg xmlns="http://www.w3.org/2000/svg" xmlns:xlink="http://www.w3.org/1999/xlink" version="1.1" width="400" height="400" viewBox="0 0 400 400" xml:space="preserve">
<desc>Created with Fabric.js 3.6.2</desc>
<defs>
</defs>
<g transform="matrix(10 0 0 10 200 200)"  >
<path style="stroke: none; stroke-width: 1; stroke-dasharray: none; stroke-linecap: butt; stroke-dashoffset: 0; stroke-linejoin: miter; stroke-miterlimit: 4; fill: rgb(0,0,0); fill-rule: nonzero; opacity: 1;"  transform=" translate(-12, -12)" d="M 13.04 14.69 l 1.07 -2.14 a 1 1 0 0 1 1.2 -0.5 l 6 2 A 1 1 0 0 1 22 15 v 5 a 2 2 0 0 1 -2 2 h -2 A 16 16 0 0 1 2 6 V 4 c 0 -1.1 0.9 -2 2 -2 h 5 a 1 1 0 0 1 0.95 0.68 l 2 6 a 1 1 0 0 1 -0.5 1.21 L 9.3 10.96 a 10.05 10.05 0 0 0 3.73 3.73 z M 8.28 4 H 4 v 2 a 14 14 0 0 0 14 14 h 2 v -4.28 l -4.5 -1.5 l -1.12 2.26 a 1 1 0 0 1 -1.3 0.46 a 12.04 12.04 0 0 1 -6.02 -6.01 a 1 1 0 0 1 0.46 -1.3 l 2.26 -1.14 L 8.28 4 z" stroke-linecap="round" />
</g>
</svg>