<svg width="31" height="21" viewBox="0 0 31 21" fill="none" xmlns="http://www.w3.org/2000/svg">
<path fill-rule="evenodd" clip-rule="evenodd" d="M15.5371 1.18895C15.537 1.18863 15.5369 1.18834 16 0.999801C16.463 0.811258 16.4629 0.811024 16.4629 0.810819L16.4628 0.810547L16.4635 0.812396L16.4684 0.823989C16.4732 0.835142 16.481 0.853079 16.492 0.877432C16.514 0.926144 16.5487 1.00051 16.5974 1.09759C16.6947 1.29178 16.8476 1.57672 17.0657 1.92904C17.502 2.63376 18.1986 3.60717 19.2323 4.66322C21.2965 6.77219 24.7147 9.22128 30.1163 10.5135L29.8836 11.4861C24.2852 10.1467 20.7034 7.59584 18.5176 5.3627C17.4263 4.24769 16.6854 3.21452 16.2155 2.45543C15.9805 2.07584 15.8131 1.76456 15.7033 1.54552C15.6484 1.43598 15.608 1.34947 15.5806 1.28896C15.567 1.2587 15.5566 1.23494 15.5494 1.21805L15.5408 1.19791L15.5383 1.19179L15.5374 1.18973L15.5371 1.18895Z" fill="#7A0000"/>
<path fill-rule="evenodd" clip-rule="evenodd" d="M16.4555 20.2071C16.4556 20.2069 16.4558 20.2066 16.0002 20.0005C15.5446 19.7944 15.5448 19.7941 15.5449 19.7938L15.5453 19.793L15.5462 19.791L15.5489 19.7852L15.5577 19.7664C15.5652 19.7507 15.5758 19.7289 15.5897 19.7013C15.6174 19.6459 15.6584 19.5672 15.7137 19.4678C15.8244 19.2689 15.9928 18.9871 16.2289 18.644C16.701 17.9576 17.4439 17.0255 18.5368 16.0206C20.7255 14.008 24.3055 11.7152 29.895 10.5117L30.1054 11.4893C24.6949 12.6543 21.2748 14.8614 19.2136 16.7567C18.1815 17.7058 17.4869 18.5796 17.0528 19.2107C16.8357 19.5263 16.6838 19.7811 16.5875 19.9541C16.5393 20.0407 16.505 20.1067 16.4835 20.1497C16.4727 20.1712 16.4651 20.1869 16.4605 20.1965L16.4559 20.2062L16.4555 20.2071Z" fill="#7A0000"/>
<path fill-rule="evenodd" clip-rule="evenodd" d="M0 10.5L30 10.5L30 11.5L1.1102e-07 11.5L0 10.5Z" fill="#7A0000"/>
</svg>
