<?xml version="1.0" standalone="no"?>
<!DOCTYPE svg PUBLIC "-//W3C//DTD SVG 20010904//EN" "http://www.w3.org/TR/2001/REC-SVG-20010904/DTD/svg10.dtd">
<svg version="1.0" xmlns="http://www.w3.org/2000/svg" width="25" height="28"
    viewBox="0 0 483.000000 372.000000" preserveAspectRatio="xMidYMid meet">
    <metadata>
        Created by potrace 1.16, written by Peter Selinger 2001-2019
    </metadata>
    <g transform="translate(0.000000,372.000000) scale(0.100000,-0.100000)" fill="#fff" stroke="none">
        <path d="M4640 3702 c0 -4 -16 -16 -35 -26 -19 -11 -35 -23 -35 -28 0 -4 -6
-8 -13 -8 -7 0 -24 -11 -39 -25 -15 -14 -30 -25 -33 -25 -6 0 -20 -11 -50 -37
-7 -7 -16 -13 -20 -13 -10 0 -35 -28 -35 -39 0 -6 -7 -11 -15 -11 -8 0 -15 -4
-15 -10 0 -5 -6 -10 -13 -10 -7 0 -30 -16 -50 -35 -20 -19 -42 -35 -47 -35 -6
0 -10 -7 -10 -15 0 -8 -9 -15 -20 -15 -11 0 -20 -4 -20 -10 0 -5 -6 -10 -13
-10 -8 0 -20 -11 -27 -25 -7 -14 -17 -25 -22 -25 -5 0 -16 -6 -23 -12 -30 -27
-44 -38 -50 -38 -3 0 -26 -20 -52 -45 -25 -25 -50 -45 -54 -45 -4 0 -19 -11
-33 -25 -14 -14 -28 -25 -31 -25 -10 0 -35 -28 -35 -39 0 -6 -5 -11 -11 -11
-6 0 -24 -9 -40 -21 -16 -11 -29 -16 -29 -10 0 6 -9 11 -19 11 -11 0 -23 5
-26 10 -3 6 -19 10 -35 10 -15 0 -30 7 -34 15 -3 8 -12 15 -21 15 -8 0 -24 5
-35 10 -11 6 -29 15 -40 20 -11 6 -31 10 -45 10 -16 0 -25 6 -25 15 0 9 -9 15
-25 15 -14 0 -25 5 -25 10 0 6 -11 10 -25 10 -14 0 -25 4 -25 10 0 5 -16 12
-35 16 -19 3 -35 10 -35 15 0 5 -11 9 -25 9 -14 0 -25 5 -25 10 0 6 -9 10 -21
10 -11 0 -27 7 -35 15 -9 8 -26 15 -40 15 -13 0 -24 5 -24 10 0 6 -11 10 -25
10 -14 0 -25 4 -25 9 0 10 -78 41 -103 41 -9 0 -17 5 -17 10 0 6 -11 10 -25
10 -16 0 -25 6 -25 15 0 8 -8 15 -17 15 -25 0 -91 24 -105 38 -7 7 -24 12 -39
12 -15 0 -31 5 -34 10 -4 7 -12 7 -25 0 -10 -5 -27 -10 -38 -10 -10 0 -31 -13
-45 -30 -24 -26 -27 -38 -27 -99 0 -39 4 -73 10 -76 5 -3 10 -24 10 -45 0 -21
7 -45 15 -54 9 -9 15 -33 15 -60 0 -25 5 -46 10 -46 6 0 10 -16 10 -35 0 -24
5 -35 15 -35 10 0 15 -10 15 -34 0 -19 5 -38 10 -41 6 -3 10 -19 10 -35 0 -16
5 -32 10 -35 6 -3 10 -15 10 -26 0 -11 7 -22 15 -25 9 -4 15 -19 15 -35 0 -16
5 -29 10 -29 6 0 10 -11 10 -25 0 -16 6 -25 15 -25 9 0 15 -9 15 -25 0 -14 5
-25 10 -25 6 0 10 -7 10 -15 0 -17 48 -98 61 -103 5 -2 9 -15 9 -28 0 -15 6
-24 15 -24 8 0 15 -7 15 -15 0 -8 5 -15 10 -15 6 0 10 -7 10 -16 0 -9 11 -27
25 -40 14 -13 25 -28 25 -35 0 -6 16 -26 35 -45 19 -18 35 -36 35 -39 0 -10
28 -35 39 -35 6 0 11 -5 11 -12 0 -6 7 -19 16 -29 16 -18 12 -59 -7 -59 -5 0
-9 -8 -9 -17 0 -10 -10 -27 -23 -38 -12 -11 -29 -33 -37 -50 -8 -16 -25 -39
-37 -51 -13 -12 -23 -27 -23 -33 0 -7 -11 -22 -25 -35 -14 -13 -25 -32 -25
-42 0 -11 -11 -28 -25 -38 -14 -10 -25 -25 -25 -33 0 -20 -58 -73 -80 -73 -11
0 -28 -4 -38 -9 -32 -16 -67 -29 -94 -35 -16 -4 -28 -11 -28 -16 0 -6 -13 -10
-30 -10 -16 0 -30 -4 -30 -10 0 -5 -11 -10 -25 -10 -14 0 -28 -7 -31 -15 -4
-9 -19 -15 -40 -15 -19 0 -34 -4 -34 -10 0 -5 -11 -10 -24 -10 -14 0 -28 -4
-31 -10 -3 -5 -17 -10 -31 -10 -14 0 -27 -7 -30 -15 -4 -9 -19 -15 -40 -15
-19 0 -34 -4 -34 -10 0 -5 -11 -10 -25 -10 -16 0 -25 -6 -25 -15 0 -10 -11
-15 -35 -15 -19 0 -35 -4 -35 -10 0 -6 -36 -10 -88 -10 -48 0 -92 -4 -97 -9
-6 -5 -61 -11 -124 -13 -80 -2 -116 -7 -119 -15 -2 -9 -29 -13 -88 -13 -86 0
-90 1 -139 48 -13 12 -29 22 -35 22 -5 0 -10 6 -10 13 0 6 -14 18 -31 26 -17
7 -42 24 -56 37 -14 13 -32 24 -39 24 -8 0 -14 5 -14 10 0 6 -11 10 -25 10
-16 0 -25 6 -25 15 0 8 -7 15 -15 15 -15 0 -55 19 -65 31 -10 12 -74 39 -92
39 -10 0 -18 5 -18 10 0 6 -11 10 -24 10 -13 0 -26 7 -30 15 -3 9 -18 15 -36
15 -16 0 -30 5 -30 10 0 6 -16 10 -36 10 -19 0 -42 7 -50 15 -9 8 -31 15 -49
15 -19 0 -37 5 -40 10 -3 6 -48 10 -100 10 -52 0 -97 4 -100 10 -8 13 -52 13
-60 0 -3 -6 -42 -10 -86 -10 -46 0 -79 -4 -79 -10 0 -5 -14 -10 -30 -10 -18 0
-33 -6 -36 -15 -4 -8 -17 -15 -30 -15 -13 0 -24 -4 -24 -10 0 -5 -8 -10 -19
-10 -10 0 -27 -11 -37 -25 -10 -14 -26 -25 -35 -25 -9 0 -25 -11 -35 -25 -10
-14 -24 -25 -31 -25 -7 0 -13 -7 -13 -15 0 -8 -4 -15 -10 -15 -5 0 -10 -9 -10
-20 0 -11 -6 -20 -14 -20 -18 0 -26 -53 -26 -185 0 -109 11 -182 27 -194 5 -3
17 -23 27 -44 10 -22 25 -46 34 -56 10 -9 23 -29 31 -44 8 -15 20 -27 28 -27
7 0 13 -5 13 -10 0 -11 9 -22 80 -99 22 -24 40 -47 40 -52 0 -5 4 -9 8 -9 4 0
26 -17 48 -38 79 -73 115 -102 124 -102 6 0 10 -5 10 -11 0 -12 25 -39 37 -39
5 0 15 -9 23 -21 8 -11 30 -27 48 -36 17 -8 32 -22 32 -29 0 -8 5 -14 10 -14
6 0 24 -13 41 -30 17 -16 40 -32 50 -35 11 -4 19 -11 19 -16 0 -5 7 -9 15 -9
8 0 15 -5 15 -11 0 -16 31 -38 53 -39 9 0 17 -5 17 -11 0 -14 25 -39 39 -39 6
0 11 -4 11 -10 0 -5 6 -10 14 -10 8 0 38 -22 67 -50 29 -27 59 -50 66 -50 7 0
13 -4 13 -10 0 -5 6 -10 14 -10 8 0 16 -7 20 -15 3 -8 15 -15 26 -15 11 0 20
-4 20 -9 0 -5 8 -11 18 -15 9 -3 31 -14 47 -25 17 -11 40 -20 53 -20 12 -1 22
-5 22 -11 0 -5 9 -10 21 -10 11 0 27 -7 35 -15 9 -8 26 -15 39 -15 13 0 27 -4
30 -10 3 -5 24 -10 46 -10 22 0 47 -6 54 -14 21 -21 206 -29 508 -24 227 4
261 7 272 21 9 13 28 17 79 17 37 0 66 4 66 10 0 6 31 10 74 10 53 0 79 4 90
15 9 9 33 15 65 15 27 0 53 5 56 10 3 6 26 10 51 10 24 0 44 5 44 10 0 6 15
10 33 10 18 0 42 7 53 15 10 8 34 15 52 15 17 0 32 5 32 10 0 6 15 10 34 10
21 0 36 6 40 15 3 8 17 15 31 15 14 0 33 4 43 9 9 5 31 14 47 21 17 6 43 18
58 26 16 8 35 14 43 14 8 0 14 5 14 10 0 6 11 10 25 10 16 0 25 6 25 15 0 9 9
15 25 15 14 0 25 5 25 10 0 6 8 10 18 10 21 1 52 23 52 39 0 6 10 11 21 11 12
0 36 16 55 35 18 19 36 35 40 35 7 0 84 80 84 87 0 3 20 24 45 47 26 25 45 53
45 65 0 11 5 21 11 21 15 0 33 21 48 57 7 17 19 34 27 37 8 3 14 15 14 26 0
11 3 20 8 20 7 0 25 30 38 63 3 9 10 17 15 17 5 0 9 9 9 19 0 11 5 23 10 26 6
3 10 14 10 24 0 10 7 24 15 31 8 7 15 23 15 36 0 13 5 24 10 24 6 0 10 9 10
19 0 11 8 34 17 53 9 18 20 41 25 50 4 10 8 31 8 48 0 16 5 30 10 30 6 0 10
18 10 41 0 23 7 47 15 55 9 10 15 34 15 64 0 27 5 52 10 55 6 4 10 93 10 235
l0 229 25 27 c14 15 25 33 25 40 0 8 5 14 10 14 6 0 10 7 10 15 0 8 7 15 15
15 8 0 15 9 15 20 0 11 5 20 10 20 6 0 10 6 10 14 0 8 7 16 15 20 8 3 15 12
15 21 0 8 5 15 10 15 6 0 10 7 10 15 0 8 5 15 10 15 6 0 10 11 10 25 0 16 6
25 15 25 8 0 15 7 15 15 0 8 5 15 10 15 6 0 10 9 10 20 0 11 4 20 10 20 5 0
12 11 16 25 3 14 10 25 15 25 5 0 9 9 9 20 0 11 3 20 8 20 7 0 25 30 38 63 3
9 10 17 15 17 5 0 9 11 9 25 0 14 3 25 8 25 10 0 42 58 42 76 0 8 5 14 10 14
6 0 10 9 10 21 0 11 7 27 15 35 8 9 15 24 15 34 0 10 5 22 10 25 6 3 10 17 10
30 0 12 7 25 15 29 8 3 15 15 15 26 0 11 5 20 10 20 6 0 10 13 10 29 0 17 5
33 10 36 6 3 10 17 10 30 0 12 7 25 15 29 9 3 15 18 15 36 0 16 5 30 10 30 6
0 10 15 10 34 0 21 6 36 15 40 9 3 15 18 15 36 0 16 5 30 10 30 6 0 10 18 10
40 0 22 5 40 10 40 6 0 10 20 10 45 0 31 4 45 14 45 15 0 26 99 26 240 0 111
-8 120 -108 120 -40 0 -72 -3 -72 -8z m-128 -434 c-7 -7 -12 -24 -12 -39 0
-15 -7 -32 -15 -39 -8 -7 -15 -23 -15 -36 0 -12 -4 -26 -10 -29 -5 -3 -10 -17
-10 -31 0 -14 -7 -32 -15 -40 -8 -9 -15 -24 -15 -34 0 -10 -4 -22 -10 -25 -5
-3 -10 -17 -10 -31 0 -13 -4 -24 -10 -24 -5 0 -10 -11 -10 -24 0 -13 -7 -26
-15 -30 -8 -3 -15 -14 -15 -25 0 -11 -4 -23 -10 -26 -5 -3 -10 -17 -10 -31 0
-14 -7 -27 -15 -30 -8 -4 -15 -14 -15 -24 0 -11 -4 -22 -10 -25 -5 -3 -10 -15
-10 -26 0 -10 -4 -19 -10 -19 -5 0 -10 -9 -10 -20 0 -10 -6 -23 -13 -27 -6 -4
-25 -34 -42 -65 -16 -32 -33 -58 -37 -58 -4 0 -8 -11 -8 -25 0 -14 -4 -25 -10
-25 -5 0 -10 -5 -10 -10 0 -10 -8 -22 -37 -55 -7 -7 -13 -21 -13 -30 0 -10
-11 -26 -25 -37 -14 -11 -25 -28 -25 -39 0 -10 -4 -19 -10 -19 -5 0 -10 -7
-10 -15 0 -8 -7 -15 -15 -15 -8 0 -15 -9 -15 -20 0 -11 -4 -20 -10 -20 -5 0
-10 -5 -10 -11 0 -6 -11 -20 -25 -31 -14 -11 -25 -26 -25 -34 0 -35 -26 -44
-124 -44 -57 0 -96 4 -96 10 0 6 -16 10 -35 10 -19 0 -35 4 -35 8 0 5 -19 16
-42 26 -24 10 -57 29 -75 42 -17 13 -34 24 -37 24 -8 0 -226 221 -226 229 0 4
-8 17 -17 29 -43 50 -51 60 -69 90 -10 18 -22 32 -26 32 -4 0 -8 9 -8 20 0 11
-7 23 -15 26 -8 4 -15 15 -15 25 0 10 -4 19 -10 19 -5 0 -10 7 -10 15 0 8 -4
15 -10 15 -5 0 -10 9 -10 20 0 11 -7 23 -15 26 -8 4 -15 17 -15 30 0 13 -4 24
-10 24 -5 0 -10 11 -10 24 0 13 -7 29 -15 36 -8 7 -15 23 -15 36 0 13 -4 24
-10 24 -5 0 -10 11 -10 25 0 25 -2 31 -33 93 -9 19 -17 42 -17 53 0 20 24 26
35 9 3 -5 19 -10 36 -10 19 0 29 -5 29 -15 0 -9 9 -15 25 -15 14 0 25 -4 25
-10 0 -5 14 -10 30 -10 18 0 33 -6 36 -15 4 -8 17 -15 30 -15 13 0 24 -4 24
-10 0 -5 11 -10 25 -10 14 0 25 -4 25 -10 0 -5 16 -10 35 -10 24 0 35 -5 35
-15 0 -9 9 -15 25 -15 14 0 25 -4 25 -10 0 -5 6 -10 14 -10 8 0 29 -8 48 -17
60 -30 68 -33 83 -33 8 0 15 -4 15 -10 0 -5 11 -10 24 -10 13 0 29 -7 36 -15
7 -8 23 -15 36 -15 13 0 24 -4 24 -10 0 -5 11 -10 25 -10 14 0 25 -4 25 -9 0
-15 84 -41 134 -41 39 0 53 5 72 25 13 14 27 25 32 25 5 0 31 20 58 45 26 25
51 45 56 45 4 0 8 7 8 15 0 8 9 15 20 15 11 0 20 5 20 10 0 6 7 10 15 10 8 0
15 7 15 15 0 8 5 15 10 15 6 0 22 10 35 23 37 34 54 47 61 47 4 0 21 16 40 35
18 19 36 35 41 35 4 0 26 16 48 35 22 19 43 35 47 35 5 0 8 7 8 15 0 8 9 15
20 15 11 0 20 5 20 10 0 6 6 10 13 10 6 0 21 11 32 25 11 13 24 24 30 25 5 0
4 -5 -3 -12z m-1122 -1318 c0 -12 104 -60 130 -60 11 0 20 -7 20 -15 0 -10 10
-15 34 -15 19 0 38 -4 41 -10 4 -6 58 -10 131 -10 l124 0 0 -135 c0 -83 -4
-135 -10 -135 -6 0 -10 -27 -10 -60 0 -33 -4 -60 -10 -60 -5 0 -12 -17 -15
-37 -3 -21 -10 -46 -16 -55 -5 -10 -9 -31 -9 -48 0 -16 -4 -30 -10 -30 -5 0
-10 -16 -10 -35 0 -24 -5 -35 -15 -35 -9 0 -15 -9 -15 -25 0 -14 -4 -25 -10
-25 -5 0 -10 -11 -10 -24 0 -13 -4 -26 -8 -28 -11 -4 -62 -108 -62 -125 0 -7
-7 -13 -15 -13 -8 0 -15 -8 -15 -17 0 -10 -11 -31 -25 -47 -14 -16 -25 -34
-25 -39 0 -5 -8 -17 -18 -26 -10 -9 -21 -24 -25 -34 -4 -9 -13 -20 -21 -23
-16 -6 -76 48 -76 70 0 8 -11 23 -25 34 -14 11 -25 25 -25 31 0 6 -4 11 -10
11 -5 0 -10 9 -10 20 0 11 -7 20 -15 20 -8 0 -15 7 -15 15 0 8 -4 15 -10 15
-5 0 -10 9 -10 20 0 11 -4 20 -9 20 -5 0 -12 11 -15 25 -4 14 -11 25 -16 25
-6 0 -10 7 -10 15 0 8 -4 15 -10 15 -5 0 -10 9 -10 20 0 11 -7 23 -15 26 -8 4
-15 15 -15 25 0 10 -4 19 -10 19 -5 0 -10 11 -10 25 0 14 -4 25 -10 25 -5 0
-10 9 -10 19 0 11 -7 26 -15 35 -8 8 -15 26 -15 40 0 14 -4 26 -10 26 -5 0
-10 11 -10 24 0 14 -7 31 -15 40 -8 8 -15 28 -15 45 0 17 -4 31 -10 31 -5 0
-10 11 -10 25 0 14 5 25 10 25 6 0 10 6 10 14 0 8 7 16 15 20 8 3 15 12 15 21
0 9 11 27 25 41 14 14 25 30 25 37 0 7 9 19 20 27 11 8 20 18 20 23 0 8 44 70
68 95 6 7 12 19 12 26 0 6 9 18 20 26 11 8 20 25 20 37 0 18 6 23 25 23 14 0
25 -4 25 -10z m-2680 -410 c0 -5 20 -10 44 -10 26 0 48 -6 56 -15 7 -8 25 -15
41 -15 16 0 29 -4 29 -10 0 -5 13 -10 29 -10 16 0 34 -7 41 -15 7 -8 21 -15
31 -15 11 0 19 -4 19 -10 0 -5 11 -10 25 -10 14 0 25 -4 25 -10 0 -5 9 -10 20
-10 11 0 20 -4 20 -10 0 -5 11 -12 25 -16 14 -3 25 -10 25 -15 0 -5 9 -9 20
-9 10 0 23 -6 27 -13 4 -6 22 -19 38 -27 17 -8 41 -25 55 -37 14 -13 30 -23
37 -23 23 0 14 -45 -12 -64 -14 -10 -25 -26 -25 -35 0 -9 -11 -25 -25 -35 -14
-10 -25 -23 -25 -29 0 -6 -11 -25 -25 -43 -14 -18 -25 -37 -25 -43 0 -6 -4
-11 -10 -11 -5 0 -10 -7 -10 -15 0 -8 -4 -15 -10 -15 -5 0 -10 -11 -10 -25 0
-16 -6 -25 -15 -25 -8 0 -15 -9 -15 -20 0 -11 -4 -20 -10 -20 -5 0 -10 -11
-10 -25 0 -14 -4 -25 -10 -25 -5 0 -12 -11 -16 -25 -3 -14 -10 -25 -15 -25 -5
0 -9 -13 -9 -29 0 -17 -4 -33 -10 -36 -5 -3 -10 -17 -10 -30 0 -12 -7 -25 -15
-29 -8 -3 -15 -15 -15 -26 0 -35 -15 -28 -91 42 -22 20 -53 43 -70 50 -16 7
-29 19 -29 25 0 7 -4 13 -9 13 -4 0 -25 16 -45 35 -21 19 -41 35 -46 35 -16 0
-360 349 -360 365 0 8 -4 15 -10 15 -5 0 -10 5 -10 10 0 10 -8 22 -38 55 -6 7
-12 20 -12 29 0 8 -4 18 -10 21 -5 3 -10 22 -10 41 0 29 9 44 50 84 27 28 58
50 70 50 11 0 20 7 20 15 0 10 10 15 29 15 17 0 33 5 36 10 4 6 58 10 131 10
76 0 124 -4 124 -10z m2150 -140 c0 -18 6 -33 15 -36 9 -4 15 -19 15 -40 0
-19 5 -34 10 -34 6 0 10 -11 10 -24 0 -13 7 -29 15 -36 8 -7 15 -23 15 -36 0
-13 5 -24 10 -24 6 0 10 -11 10 -25 0 -14 4 -25 9 -25 5 0 12 -11 15 -25 4
-14 11 -25 16 -25 6 0 10 -11 10 -25 0 -14 5 -25 10 -25 6 0 10 -7 10 -15 0
-7 6 -18 13 -22 14 -9 37 -48 37 -63 0 -10 8 -21 38 -55 6 -7 12 -18 12 -24 0
-6 5 -11 10 -11 6 0 10 -6 10 -13 0 -7 11 -24 25 -39 14 -15 25 -31 25 -35 0
-5 11 -20 25 -35 14 -15 25 -30 25 -33 0 -10 28 -35 38 -35 5 0 12 -11 15 -25
3 -21 -1 -29 -24 -41 -16 -8 -29 -19 -29 -24 0 -6 -11 -10 -25 -10 -14 0 -25
-4 -25 -10 0 -5 -11 -10 -25 -10 -16 0 -25 -6 -25 -15 0 -10 -10 -15 -29 -15
-17 0 -33 -5 -36 -10 -3 -6 -17 -10 -31 -10 -13 0 -24 -4 -24 -9 0 -5 -16 -12
-35 -15 -19 -4 -35 -11 -35 -16 0 -6 -16 -10 -35 -10 -19 0 -35 -4 -35 -10 0
-5 -16 -10 -35 -10 -24 0 -35 -5 -35 -15 0 -11 -12 -15 -44 -15 -25 0 -48 -5
-51 -10 -3 -5 -26 -10 -51 -10 -24 0 -44 -4 -44 -10 0 -5 -22 -10 -49 -10 -31
0 -55 -6 -65 -15 -9 -9 -33 -15 -60 -15 -42 0 -46 2 -46 24 0 13 -7 29 -15 36
-10 8 -15 30 -15 61 0 27 -4 49 -9 49 -5 0 -12 28 -15 62 -3 35 -9 102 -13
150 -5 48 -14 93 -20 100 -10 9 -13 67 -13 221 0 222 3 237 49 237 12 0 21 5
21 10 0 6 14 10 30 10 18 0 33 6 36 15 4 8 17 15 30 15 13 0 24 5 24 10 0 6
16 10 35 10 19 0 35 5 35 10 0 6 11 10 24 10 14 0 31 7 40 15 8 8 26 15 40 15
14 0 26 5 26 10 0 6 14 10 30 10 18 0 33 6 36 15 4 8 17 15 29 15 13 0 27 5
30 10 14 22 35 10 35 -20z m-790 -465 c0 -200 2 -236 15 -241 12 -5 15 -25 15
-90 0 -49 4 -84 10 -84 6 0 10 -28 10 -64 0 -36 5 -68 10 -71 6 -3 10 -24 10
-45 0 -21 7 -45 15 -54 26 -26 17 -36 -35 -36 -27 0 -50 -4 -50 -10 0 -6 -63
-10 -170 -10 -107 0 -170 4 -170 10 0 6 -30 10 -69 10 -52 0 -70 4 -75 15 -3
10 -19 15 -45 15 -22 0 -43 5 -46 10 -3 6 -21 10 -40 10 -20 0 -35 6 -39 15
-3 8 -15 15 -26 15 -11 0 -20 5 -20 10 0 6 -9 10 -19 10 -11 0 -23 5 -26 10
-3 6 -14 10 -25 10 -10 0 -20 7 -24 15 -3 8 -13 15 -21 15 -9 0 -23 6 -31 14
-16 16 -19 86 -4 86 6 0 10 15 10 34 0 19 5 36 11 38 12 4 39 73 39 101 0 9 5
17 10 17 6 0 10 9 10 19 0 10 7 21 15 25 8 3 15 15 15 26 0 11 5 20 10 20 6 0
10 9 10 20 0 11 7 23 15 26 8 4 15 12 15 20 0 8 5 14 10 14 6 0 10 9 10 20 0
11 5 20 10 20 6 0 10 6 10 14 0 8 7 16 15 20 8 3 15 12 15 21 0 8 5 15 10 15
6 0 10 5 10 10 0 6 11 21 25 34 14 13 25 29 25 35 0 13 46 60 78 79 14 7 61
12 126 12 80 0 108 4 118 15 10 11 39 14 121 15 l107 0 0 -235z" />
        <path d="M660 1345 c0 -8 -5 -15 -11 -15 -26 0 -39 -30 -39 -94 0 -37 4 -66
10 -66 6 0 10 -7 10 -15 0 -8 7 -15 15 -15 8 0 15 -4 15 -10 0 -14 101 -12
133 3 15 6 27 20 27 30 0 10 7 20 15 23 10 4 15 20 15 49 0 25 -6 50 -15 59
-8 8 -15 17 -15 20 0 3 -8 15 -17 26 -14 16 -30 20 -80 20 -49 0 -63 -3 -63
-15z" />
        <path d="M2105 2930 c-3 -5 -14 -10 -23 -10 -9 0 -27 -12 -39 -27 -19 -21 -23
-38 -23 -90 0 -47 4 -65 15 -69 8 -4 15 -10 15 -16 0 -10 25 -38 34 -38 3 0
22 -16 42 -35 19 -19 42 -35 50 -35 8 0 14 -7 14 -15 0 -8 4 -15 9 -15 6 0 39
-29 75 -66 l66 -65 0 -140 c0 -86 4 -139 10 -139 6 0 10 -48 10 -122 1 -122 9
-158 39 -158 6 0 11 -6 11 -13 0 -15 55 -37 93 -37 15 0 27 5 27 10 0 6 8 10
18 10 22 0 52 34 52 60 0 11 5 20 10 20 6 0 10 14 10 30 0 17 -4 30 -10 30 -6
0 -10 53 -10 138 0 76 -4 142 -9 148 -5 5 -11 72 -13 148 -2 100 -7 141 -15
144 -7 2 -13 13 -13 24 0 18 -21 48 -35 48 -3 0 -16 11 -29 25 -13 14 -28 25
-33 25 -6 0 -19 11 -29 25 -10 14 -23 25 -27 25 -12 0 -37 27 -37 39 0 6 -4
11 -9 11 -5 0 -29 20 -54 45 -26 25 -50 45 -55 45 -5 0 -15 7 -22 15 -7 8 -21
15 -31 15 -11 0 -19 5 -19 10 0 6 -13 10 -29 10 -17 0 -33 -4 -36 -10z" />
        <path d="M1620 2715 c0 -8 -5 -15 -11 -15 -25 0 -39 -30 -39 -88 0 -57 22
-122 41 -122 5 0 9 -7 9 -15 0 -8 4 -15 9 -15 5 0 12 -8 16 -19 3 -10 19 -33
35 -50 17 -17 30 -38 30 -46 0 -9 7 -18 15 -21 8 -4 15 -12 15 -20 0 -8 3 -14
8 -14 4 0 13 -12 20 -27 14 -32 16 -113 2 -113 -6 0 -10 -32 -10 -75 0 -43 -4
-75 -10 -75 -6 0 -10 -33 -10 -79 0 -61 -3 -80 -15 -85 -12 -4 -15 -25 -15
-96 0 -73 3 -90 15 -90 8 0 15 -5 15 -11 0 -26 30 -39 94 -39 37 0 66 4 66 10
0 6 7 10 15 10 8 0 15 7 15 15 0 8 5 15 10 15 6 0 10 19 10 43 0 23 7 51 15
61 10 13 15 44 15 88 0 39 4 68 10 68 6 0 10 32 10 75 0 43 4 75 10 75 6 0 10
33 10 79 0 61 3 80 15 85 10 3 15 19 15 46 0 27 -5 43 -15 46 -8 4 -15 13 -15
20 0 17 -47 92 -72 115 -10 9 -18 23 -18 31 0 8 -11 24 -25 34 -14 10 -25 26
-25 34 0 9 -13 30 -30 48 -16 18 -30 38 -30 43 0 5 -18 28 -40 49 -38 38 -44
40 -100 40 -47 0 -60 -3 -60 -15z" />
    </g>
</svg>