<svg width="17" height="17" viewBox="0 0 17 17" fill="none" xmlns="http://www.w3.org/2000/svg">
<path fill-rule="evenodd" clip-rule="evenodd" d="M7.42833 1.5C4.15421 1.5 1.5 4.15423 1.5 7.42841C1.5 10.7026 4.15421 13.3568 7.42833 13.3568C10.7024 13.3568 13.3567 10.7026 13.3567 7.42841C13.3567 4.15423 10.7024 1.5 7.42833 1.5ZM0.5 7.42841C0.5 3.60196 3.60191 0.5 7.42833 0.5C11.2547 0.5 14.3567 3.60196 14.3567 7.42841C14.3567 11.2549 11.2547 14.3568 7.42833 14.3568C3.60191 14.3568 0.5 11.2549 0.5 7.42841Z" fill="white"/>
<path fill-rule="evenodd" clip-rule="evenodd" d="M12.0752 12.0742C12.2704 11.8789 12.587 11.8789 12.7823 12.0742L16.3537 15.6456C16.549 15.8409 16.549 16.1575 16.3537 16.3527C16.1584 16.548 15.8418 16.548 15.6466 16.3527L12.0752 12.7813C11.8799 12.586 11.8799 12.2694 12.0752 12.0742Z" fill="white"/>
</svg>
