<svg width="27" height="33" viewBox="0 0 27 33" fill="none" xmlns="http://www.w3.org/2000/svg">
<path fill-rule="evenodd" clip-rule="evenodd" d="M13.8849 0.161033C13.9955 0.207189 14.0995 0.274081 14.191 0.36171C14.1968 0.367332 14.2026 0.373024 14.2084 0.378785L20.3731 6.54354C20.7636 6.93407 20.7636 7.56723 20.3731 7.95776C19.9826 8.34828 19.3494 8.34828 18.9589 7.95776L14.4993 3.4982V21.1257C14.4993 21.6779 14.0516 22.1257 13.4993 22.1257C12.9471 22.1257 12.4993 21.6779 12.4993 21.1257V3.49819L8.03978 7.95776C7.64925 8.34828 7.01609 8.34828 6.62557 7.95776C6.23504 7.56723 6.23504 6.93407 6.62557 6.54354L12.7922 0.376878C12.9867 0.182378 13.2414 0.0847486 13.4963 0.0839888C13.4973 0.0839859 13.4983 0.0839844 13.4993 0.0839844C13.636 0.0839844 13.7663 0.1114 13.8849 0.161033ZM1.16602 15.5C1.7183 15.5 2.16602 15.9477 2.16602 16.5V28.8333C2.16602 29.3859 2.38551 29.9158 2.77621 30.3065C3.16691 30.6972 3.69681 30.9167 4.24935 30.9167H22.7493C23.3019 30.9167 23.8318 30.6972 24.2225 30.3065C24.6132 29.9158 24.8327 29.3859 24.8327 28.8333V16.5C24.8327 15.9477 25.2804 15.5 25.8327 15.5C26.385 15.5 26.8327 15.9477 26.8327 16.5V28.8333C26.8327 29.9163 26.4025 30.9549 25.6367 31.7207C24.8709 32.4865 23.8323 32.9167 22.7493 32.9167H4.24935C3.16638 32.9167 2.12777 32.4865 1.362 31.7207C0.596223 30.9549 0.166016 29.9163 0.166016 28.8333V16.5C0.166016 15.9477 0.613731 15.5 1.16602 15.5Z" fill="url(#paint0_linear_2072_818)"/>
<defs>
<linearGradient id="paint0_linear_2072_818" x1="0.166016" y1="0.0839844" x2="28.1608" y2="1.25843" gradientUnits="userSpaceOnUse">
<stop stop-color="#7A0000"/>
<stop offset="1" stop-color="#990000"/>
</linearGradient>
</defs>
</svg>
