<?xml version="1.0" standalone="no"?>
<!DOCTYPE svg PUBLIC "-//W3C//DTD SVG 20010904//EN" "http://www.w3.org/TR/2001/REC-SVG-20010904/DTD/svg10.dtd">
<svg version="1.0" xmlns="http://www.w3.org/2000/svg" width="29" height="35"
    viewBox="0 0 432.000000 346.000000" preserveAspectRatio="xMidYMid meet">
    <metadata>
        Created by potrace 1.16, written by Peter Selinger 2001-2019
    </metadata>
    <g transform="translate(0.000000,346.000000) scale(0.100000,-0.100000)" fill="#fff" stroke="none">
        <path d="M1998 3443 c-10 -2 -18 -9 -18 -14 0 -5 -16 -9 -35 -9 -19 0 -35 -4
-35 -10 0 -5 -16 -10 -35 -10 -24 0 -35 -5 -35 -15 0 -9 -9 -15 -25 -15 -14 0
-25 -4 -25 -10 0 -5 -5 -10 -10 -10 -10 0 -22 -8 -55 -37 -7 -7 -16 -13 -20
-13 -10 0 -35 -28 -35 -39 0 -6 -5 -11 -11 -11 -17 0 -89 -88 -89 -109 0 -6
-4 -11 -10 -11 -5 0 -10 -9 -10 -19 0 -10 -7 -21 -15 -25 -8 -3 -15 -15 -15
-26 0 -11 -4 -20 -10 -20 -5 0 -10 5 -10 10 0 6 -9 10 -19 10 -11 0 -32 6 -48
14 -72 36 -79 37 -248 33 -165 -3 -246 -15 -253 -36 -2 -6 -15 -11 -28 -11
-13 0 -24 -4 -24 -10 0 -5 -11 -10 -25 -10 -16 0 -25 -6 -25 -15 0 -8 -9 -15
-20 -15 -11 0 -37 -16 -57 -35 -20 -19 -41 -35 -46 -35 -10 0 -67 -55 -67 -65
0 -3 -5 -11 -10 -18 -47 -55 -61 -74 -66 -89 -3 -10 -10 -18 -15 -18 -5 0 -9
-11 -9 -25 0 -14 -4 -25 -10 -25 -5 0 -10 -15 -10 -34 0 -21 -6 -36 -15 -40
-10 -4 -15 -20 -15 -50 0 -25 -4 -48 -10 -51 -5 -3 -10 -31 -10 -61 0 -51 -1
-54 -25 -54 -14 0 -25 -4 -25 -10 0 -5 -11 -10 -25 -10 -14 0 -25 -4 -25 -10
0 -5 -9 -10 -20 -10 -11 0 -23 -7 -26 -15 -4 -8 -15 -15 -25 -15 -10 0 -19 -4
-19 -10 0 -5 -7 -10 -15 -10 -8 0 -15 -5 -15 -11 0 -11 -25 -39 -35 -39 -8 0
-35 -27 -35 -35 0 -10 -28 -35 -39 -35 -6 0 -11 -7 -11 -15 0 -8 -4 -15 -10
-15 -5 0 -10 -6 -10 -13 0 -7 -11 -24 -25 -39 -14 -15 -25 -36 -25 -48 0 -11
-4 -20 -10 -20 -5 0 -10 -10 -10 -22 0 -12 -8 -30 -18 -41 -15 -17 -17 -45
-17 -264 0 -221 2 -246 18 -257 9 -7 17 -23 17 -35 0 -11 5 -21 10 -21 6 0 10
-30 10 -69 0 -39 5 -73 10 -76 6 -3 10 -15 10 -25 0 -10 7 -25 15 -34 8 -8 15
-19 15 -25 0 -6 5 -11 10 -11 6 0 10 -7 10 -15 0 -8 11 -25 25 -39 14 -14 25
-30 25 -36 0 -5 7 -10 15 -10 8 0 15 -4 15 -10 0 -5 9 -10 20 -10 11 0 20 -7
20 -15 0 -8 7 -15 15 -15 8 0 15 -4 15 -10 0 -5 10 -10 23 -10 20 0 22 -4 19
-40 -2 -22 -8 -40 -13 -40 -5 0 -9 -40 -9 -90 0 -53 4 -90 10 -90 6 0 10 -15
10 -33 0 -18 7 -42 15 -53 8 -10 15 -29 15 -41 0 -13 5 -23 10 -23 6 0 10 -8
10 -19 0 -10 11 -27 25 -37 14 -10 25 -26 25 -36 0 -9 11 -25 25 -36 14 -11
25 -23 25 -27 0 -10 27 -35 39 -35 6 0 11 -5 11 -11 0 -16 26 -39 45 -39 9 0
26 -9 38 -20 29 -28 75 -50 103 -50 12 0 24 -5 26 -11 2 -6 25 -13 51 -16 26
-3 50 -10 53 -14 3 -5 66 -9 140 -9 130 0 136 -1 162 -25 15 -14 31 -25 37
-25 6 0 19 -11 29 -25 10 -14 27 -25 37 -25 11 0 19 -3 19 -7 0 -12 51 -33 77
-33 14 0 23 -6 23 -15 0 -10 10 -15 29 -15 17 0 33 -4 36 -10 3 -5 26 -10 49
-10 27 0 48 -6 56 -15 19 -22 458 -22 466 0 5 11 22 15 65 15 33 0 59 4 59 10
0 6 18 10 40 10 22 0 40 -4 40 -10 0 -6 26 -10 59 -10 43 0 60 -4 65 -15 8
-22 447 -22 466 0 8 9 30 15 56 15 24 0 44 5 44 10 0 6 16 10 35 10 24 0 35 5
35 15 0 8 8 15 17 15 24 0 83 23 83 32 0 4 8 8 19 8 10 0 27 11 37 25 10 14
23 25 29 25 6 0 22 11 37 25 26 24 32 25 162 25 74 0 137 4 140 9 3 4 27 11
53 14 26 3 49 10 51 16 2 6 14 11 26 11 28 0 74 22 103 50 12 11 29 20 38 20
19 0 45 23 45 39 0 6 5 11 11 11 12 0 39 25 39 35 0 4 11 16 25 27 14 11 25
26 25 34 0 8 11 27 25 42 14 15 25 32 25 39 0 7 5 13 10 13 6 0 10 13 10 29 0
16 7 34 15 41 8 7 15 28 15 46 0 19 5 34 10 34 6 0 10 37 10 90 0 53 -4 90
-10 90 -5 0 -10 18 -10 40 0 33 3 40 20 40 11 0 20 5 20 10 0 6 7 10 15 10 8
0 15 7 15 15 0 8 9 15 20 15 11 0 20 5 20 10 0 6 7 10 15 10 8 0 15 5 15 10 0
6 11 22 25 36 14 14 25 31 25 39 0 8 4 15 9 15 5 0 11 8 15 17 3 10 9 25 14
33 27 46 32 66 32 125 0 37 4 65 10 65 6 0 10 10 10 21 0 12 8 28 18 35 15 11
17 36 17 259 0 224 -2 247 -17 256 -11 6 -18 22 -18 39 0 17 -4 30 -10 30 -5
0 -10 10 -10 21 0 12 -11 32 -25 45 -14 13 -25 30 -25 39 0 8 -4 15 -10 15 -5
0 -10 7 -10 15 0 8 -5 15 -11 15 -11 0 -39 25 -39 35 0 8 -27 35 -35 35 -10 0
-35 28 -35 39 0 6 -7 11 -15 11 -8 0 -15 5 -15 10 0 6 -9 10 -19 10 -10 0 -21
7 -25 15 -3 8 -15 15 -26 15 -11 0 -20 5 -20 10 0 6 -11 10 -25 10 -14 0 -25
5 -25 10 0 6 -11 10 -25 10 -24 0 -25 3 -25 54 0 30 -4 58 -10 61 -5 3 -10 26
-10 51 0 30 -5 46 -15 50 -9 4 -15 19 -15 40 0 19 -4 34 -10 34 -5 0 -10 11
-10 25 0 14 -4 25 -9 25 -5 0 -12 8 -15 18 -4 10 -14 27 -24 38 -10 10 -31 37
-47 59 -37 51 -61 75 -75 75 -6 0 -26 16 -44 35 -19 19 -44 35 -55 35 -12 0
-21 6 -21 15 0 9 -9 15 -25 15 -14 0 -25 5 -25 10 0 6 -9 10 -21 10 -11 0 -27
7 -35 15 -9 8 -28 15 -44 15 -16 0 -32 5 -35 10 -8 13 -352 14 -359 1 -3 -5
-22 -12 -41 -15 -19 -4 -35 -11 -35 -16 0 -6 -11 -10 -25 -10 -14 0 -25 -4
-25 -10 0 -5 -4 -10 -10 -10 -5 0 -10 9 -10 20 0 11 -7 23 -15 26 -8 4 -15 15
-15 25 0 10 -4 19 -10 19 -5 0 -10 7 -10 15 0 9 -7 18 -15 21 -8 4 -15 11 -15
18 0 15 -45 66 -59 66 -6 0 -11 5 -11 11 0 14 -25 39 -39 39 -6 0 -11 3 -11 8
0 4 -16 16 -35 26 -19 11 -35 23 -35 28 0 4 -11 8 -24 8 -13 0 -26 7 -30 15
-3 9 -18 15 -36 15 -16 0 -30 5 -30 10 0 6 -15 10 -34 10 -19 0 -36 6 -38 13
-4 9 -47 12 -164 14 -87 1 -167 -1 -176 -4z m297 -203 c3 -5 19 -10 35 -10 16
0 32 -4 35 -10 3 -5 12 -10 20 -10 8 0 26 -11 41 -25 15 -14 31 -25 36 -25 4
0 24 -16 42 -35 19 -19 39 -35 45 -35 6 0 11 -7 11 -15 0 -8 5 -15 10 -15 6 0
10 -9 10 -20 0 -11 4 -20 9 -20 5 0 12 -11 15 -25 4 -14 11 -25 16 -25 6 0 10
-11 10 -25 0 -14 5 -25 10 -25 6 0 10 -16 10 -35 0 -24 5 -35 15 -35 8 0 15
-9 15 -19 0 -10 7 -22 16 -25 28 -11 114 -6 130 7 8 6 21 18 29 25 7 6 18 12
24 12 6 0 11 5 11 10 0 6 11 10 25 10 14 0 25 4 25 9 0 5 16 12 35 15 19 4 35
11 35 16 0 6 51 10 121 10 94 0 124 -3 135 -15 9 -8 26 -15 40 -15 13 0 24 -4
24 -10 0 -5 9 -10 19 -10 11 0 23 -4 26 -10 3 -5 15 -10 26 -10 10 0 19 -7 19
-15 0 -8 5 -15 10 -15 6 0 23 -11 38 -25 15 -14 32 -25 39 -25 7 0 13 -7 13
-16 0 -10 16 -32 35 -51 19 -19 35 -43 35 -53 0 -11 5 -20 10 -20 6 0 10 -9
10 -20 0 -11 7 -23 15 -26 10 -4 15 -20 15 -50 0 -24 5 -44 10 -44 6 0 10 -42
10 -105 l0 -104 30 -16 c16 -8 42 -15 58 -15 17 0 32 -6 36 -15 3 -8 14 -15
25 -15 11 0 23 -4 26 -10 3 -5 15 -10 26 -10 10 0 19 -4 19 -9 0 -5 9 -12 20
-16 30 -10 170 -154 170 -176 0 -10 5 -19 10 -19 6 0 10 -9 10 -19 0 -10 7
-21 15 -25 9 -3 15 -18 15 -36 0 -16 5 -30 10 -30 6 0 10 -27 10 -60 l0 -60
-25 12 c-14 6 -25 15 -25 20 0 4 -11 8 -25 8 -14 0 -25 5 -25 10 0 14 -367 14
-375 0 -3 -5 -22 -10 -41 -10 -19 0 -34 -4 -34 -10 0 -5 -9 -10 -20 -10 -11 0
-23 -7 -26 -15 -4 -8 -17 -15 -30 -15 -13 0 -24 -4 -24 -10 0 -5 -9 -10 -20
-10 -11 0 -20 -7 -20 -15 0 -8 -7 -15 -15 -15 -8 0 -15 -4 -15 -10 0 -5 -16
-10 -35 -10 -19 0 -35 5 -35 10 0 6 -50 10 -130 10 -80 0 -130 -4 -130 -10 0
-5 -19 -10 -42 -10 -49 0 -120 -22 -126 -39 -2 -6 -15 -11 -28 -11 -13 0 -24
-4 -24 -10 0 -5 -7 -10 -15 -10 -8 0 -25 -11 -39 -25 -14 -14 -30 -25 -36 -25
-5 0 -10 -3 -10 -7 0 -5 -11 -21 -25 -37 -14 -16 -25 -35 -25 -43 0 -7 -4 -13
-10 -13 -5 0 -10 -11 -10 -25 0 -14 -4 -25 -10 -25 -5 0 -10 -20 -10 -45 0
-33 -4 -45 -15 -45 -8 0 -15 -4 -15 -10 0 -5 -9 -10 -20 -10 -11 0 -23 -7 -26
-15 -4 -8 -15 -15 -25 -15 -10 0 -19 -4 -19 -10 0 -5 -6 -10 -14 -10 -8 0 -16
-7 -20 -15 -3 -8 -12 -15 -21 -15 -8 0 -15 -4 -15 -10 0 -5 -5 -10 -11 -10
-14 0 -39 -25 -39 -39 0 -6 -5 -11 -11 -11 -15 0 -109 -95 -109 -109 0 -6 -5
-11 -11 -11 -14 0 -38 -30 -39 -48 0 -7 -11 -23 -25 -36 -14 -13 -25 -31 -25
-40 0 -9 -4 -16 -10 -16 -5 0 -10 -11 -10 -24 0 -13 -7 -26 -15 -30 -8 -3 -15
-15 -15 -26 0 -11 -4 -20 -10 -20 -5 0 -10 9 -10 20 0 11 -7 23 -15 26 -8 4
-15 17 -15 30 0 13 -4 24 -10 24 -5 0 -10 7 -10 16 0 9 -11 27 -25 40 -14 13
-25 29 -25 36 -1 18 -25 48 -39 48 -6 0 -11 5 -11 11 0 14 -94 109 -109 109
-6 0 -11 5 -11 11 0 15 -51 59 -68 59 -7 0 -15 7 -18 15 -4 8 -12 15 -20 15
-8 0 -14 5 -14 10 0 6 -9 10 -19 10 -10 0 -21 7 -25 15 -3 8 -15 15 -26 15
-11 0 -20 5 -20 10 0 6 -7 10 -15 10 -11 0 -15 12 -15 45 0 25 -4 45 -10 45
-5 0 -10 11 -10 25 0 14 -4 25 -10 25 -5 0 -10 7 -10 15 0 8 -11 25 -25 39
-14 14 -25 30 -25 36 0 5 -5 10 -10 10 -6 0 -22 11 -36 25 -14 14 -31 25 -39
25 -8 0 -15 5 -15 10 0 6 -11 10 -24 10 -13 0 -26 5 -28 11 -6 17 -77 39 -125
39 -24 0 -43 5 -43 10 0 6 -50 10 -130 10 -80 0 -130 -4 -130 -10 0 -21 -63
-10 -86 15 -13 14 -30 25 -39 25 -8 0 -15 5 -15 10 0 6 -11 10 -24 10 -13 0
-26 7 -30 15 -3 8 -15 15 -26 15 -11 0 -20 5 -20 10 0 6 -18 10 -40 10 -22 0
-40 5 -40 10 0 6 -68 10 -185 10 -117 0 -185 -4 -185 -10 0 -5 -11 -10 -25
-10 -14 0 -25 -4 -25 -8 0 -5 -11 -14 -25 -20 l-25 -12 0 60 c0 32 5 62 10 65
6 3 10 19 10 36 0 19 5 29 15 29 8 0 15 9 15 20 0 11 5 20 10 20 6 0 10 9 10
19 0 22 140 166 170 176 11 4 20 11 20 16 0 5 9 9 19 9 11 0 23 5 26 10 3 6
15 10 26 10 11 0 22 7 25 15 4 8 18 15 34 15 15 0 41 7 58 16 l32 15 0 105 c0
63 4 104 10 104 6 0 10 20 10 44 0 30 5 46 15 50 8 3 15 15 15 26 0 11 5 20
10 20 6 0 10 8 10 19 0 10 16 35 35 55 19 21 35 44 35 52 0 8 6 14 14 14 8 0
16 7 20 15 3 8 12 15 21 15 8 0 15 5 15 10 0 6 7 10 15 10 8 0 15 7 15 15 0 8
9 15 19 15 11 0 23 5 26 10 3 6 15 10 26 10 10 0 19 5 19 10 0 6 11 10 24 10
14 0 31 7 40 15 11 12 41 15 135 15 70 0 121 -4 121 -10 0 -5 16 -12 35 -16
19 -3 35 -10 35 -15 0 -5 11 -9 25 -9 14 0 25 -4 25 -10 0 -5 5 -10 11 -10 6
0 17 -6 24 -12 8 -7 21 -19 29 -25 36 -30 146 -10 146 26 0 6 7 11 15 11 10 0
15 11 15 35 0 19 5 35 10 35 6 0 10 11 10 25 0 14 4 25 10 25 5 0 12 11 16 25
3 14 10 25 15 25 5 0 9 9 9 20 0 11 5 20 10 20 6 0 10 7 10 15 0 8 5 15 11 15
6 0 25 15 43 33 18 19 47 40 64 48 18 8 32 20 32 26 0 7 9 13 19 13 11 0 23 5
26 10 3 6 19 10 35 10 16 0 32 5 35 10 4 6 60 10 135 10 75 0 131 -4 135 -10z
m1589 -1605 c3 -10 19 -15 45 -15 22 0 43 -4 46 -10 3 -5 15 -10 26 -10 10 0
19 -7 19 -15 0 -8 5 -15 10 -15 6 0 10 -7 10 -15 0 -9 7 -18 15 -21 20 -8 22
-197 3 -220 -7 -8 -19 -21 -25 -29 -7 -7 -13 -21 -13 -29 0 -9 -4 -16 -10 -16
-5 0 -10 -7 -10 -15 0 -8 -8 -15 -17 -15 -10 0 -29 -9 -43 -20 -14 -11 -31
-20 -38 -20 -7 0 -15 -7 -18 -15 -4 -9 -19 -15 -38 -15 -39 0 -86 -20 -86 -37
0 -7 -7 -13 -15 -13 -11 0 -15 -12 -15 -44 0 -26 6 -51 15 -60 8 -8 15 -17 15
-21 0 -3 11 -17 25 -31 14 -14 25 -31 25 -39 0 -8 5 -15 10 -15 16 0 12 -90
-5 -106 -8 -9 -15 -26 -15 -40 0 -13 -4 -24 -10 -24 -5 0 -10 -11 -10 -25 0
-14 -4 -25 -10 -25 -5 0 -10 -5 -10 -10 0 -13 -12 -28 -72 -88 -60 -60 -75
-72 -88 -72 -5 0 -10 -4 -10 -10 0 -5 -13 -10 -29 -10 -17 0 -33 -4 -36 -10
-3 -6 -19 -10 -34 -10 -16 0 -34 -7 -41 -15 -10 -12 -43 -15 -178 -15 l-166 0
-30 -29 c-86 -80 -98 -91 -109 -92 -7 0 -25 -9 -42 -20 -16 -10 -37 -21 -45
-25 -8 -3 -23 -10 -32 -15 -10 -5 -31 -9 -47 -9 -17 0 -33 -4 -36 -10 -4 -6
-83 -10 -205 -10 -218 0 -229 3 -187 57 12 15 25 30 29 31 5 2 8 10 8 18 0 8
5 14 10 14 6 0 22 11 35 25 14 13 25 29 25 35 0 5 5 10 11 10 14 0 39 25 39
39 0 6 5 11 10 11 14 0 60 46 60 60 0 5 5 10 11 10 14 0 39 25 39 39 0 6 5 11
10 11 6 0 22 10 35 22 36 34 53 48 60 48 3 0 25 20 49 45 25 25 48 45 53 45 4
0 20 11 35 25 15 14 32 25 38 25 5 0 10 5 10 11 0 16 27 39 46 39 9 0 27 11
39 24 12 13 35 31 51 39 16 9 36 25 44 36 8 12 24 21 35 21 11 0 29 11 39 25
10 14 27 25 37 25 11 0 19 5 19 10 0 6 7 10 15 10 8 0 25 11 39 25 14 14 34
25 46 25 11 0 20 4 20 10 0 5 11 12 25 16 14 3 25 9 25 13 0 4 16 13 35 21 19
8 35 20 35 27 0 7 11 13 25 13 14 0 25 5 25 10 0 6 11 10 25 10 14 0 25 5 25
10 0 6 7 10 16 10 9 0 29 12 45 27 25 24 29 35 29 82 0 42 -4 58 -22 72 -27
24 -110 26 -132 4 -8 -8 -21 -15 -28 -16 -7 0 -26 -9 -43 -20 -16 -10 -47 -26
-67 -36 -21 -10 -38 -21 -38 -25 0 -5 -9 -8 -20 -8 -11 0 -23 -7 -26 -15 -4
-8 -15 -15 -25 -15 -19 0 -28 -6 -64 -37 -7 -7 -18 -13 -24 -13 -6 0 -11 -4
-11 -10 0 -5 -8 -10 -17 -10 -22 -1 -53 -23 -53 -39 0 -6 -9 -11 -20 -11 -12
0 -33 -11 -48 -25 -15 -14 -32 -25 -39 -25 -7 0 -13 -4 -13 -8 0 -5 -16 -17
-35 -28 -19 -10 -35 -22 -35 -26 0 -5 -5 -8 -10 -8 -6 0 -23 -11 -38 -25 -15
-14 -31 -25 -35 -25 -5 0 -24 -16 -43 -35 -18 -19 -39 -35 -45 -35 -6 0 -26
-16 -45 -35 -18 -19 -36 -35 -41 -35 -5 0 -17 -11 -27 -25 -10 -14 -25 -25
-32 -25 -7 0 -21 -11 -32 -25 -11 -14 -22 -25 -25 -25 -10 0 -107 -100 -107
-110 0 -6 -5 -10 -10 -10 -14 0 -110 -96 -110 -110 0 -5 -7 -10 -15 -10 -11 0
-15 12 -15 44 0 26 6 48 15 56 8 7 15 25 15 41 0 16 5 29 10 29 6 0 10 11 10
25 0 14 5 25 10 25 6 0 10 11 10 24 0 13 7 26 15 30 8 3 15 15 15 26 0 11 5
20 10 20 6 0 10 6 10 13 0 6 13 26 28 44 15 17 44 53 65 80 21 27 51 54 68 62
16 7 29 19 29 27 0 8 7 14 15 14 8 0 15 5 15 10 0 6 9 10 20 10 11 0 20 5 20
10 0 6 6 10 14 10 8 0 16 7 20 15 3 8 16 15 30 15 14 0 28 5 31 10 3 6 14 10
23 10 28 0 52 37 52 79 0 22 6 44 15 51 8 7 15 23 15 36 0 12 5 26 10 29 6 3
10 13 10 20 0 21 56 74 95 90 18 8 36 19 40 25 3 5 21 10 40 10 19 0 37 5 40
10 3 6 50 10 105 10 55 0 102 -4 105 -10 9 -15 187 -12 208 4 9 7 17 16 17 20
0 11 27 36 38 36 14 0 76 33 80 43 2 4 14 7 27 7 13 0 27 5 30 10 3 6 30 10
60 10 35 0 59 5 67 15 17 19 34 19 42 0z m-3280 -26 c6 -5 20 -9 32 -9 12 0
24 -3 26 -7 4 -10 66 -43 80 -43 11 0 38 -25 38 -36 0 -4 8 -13 18 -20 20 -16
188 -19 197 -4 3 6 52 10 110 10 58 0 107 -4 110 -10 3 -5 24 -10 46 -10 25 0
42 -5 45 -14 3 -8 16 -17 29 -20 29 -7 95 -70 95 -90 0 -8 5 -18 10 -21 6 -3
10 -20 10 -36 0 -17 6 -32 15 -35 10 -4 15 -20 15 -45 0 -42 24 -79 52 -79 9
0 20 -4 23 -10 3 -5 17 -10 31 -10 14 0 35 -11 48 -25 13 -14 31 -25 40 -25 9
0 16 -4 16 -10 0 -5 7 -10 15 -10 8 0 15 -5 15 -11 0 -16 31 -38 53 -39 9 0
17 -7 17 -15 0 -8 3 -15 8 -15 4 0 18 -16 31 -36 13 -19 37 -49 53 -67 15 -18
28 -38 28 -44 0 -7 5 -13 10 -13 6 0 10 -9 10 -20 0 -11 7 -23 15 -26 8 -4 15
-17 15 -30 0 -13 5 -24 10 -24 6 0 10 -11 10 -25 0 -14 5 -25 10 -25 6 0 10
-14 10 -30 0 -18 6 -33 15 -36 10 -4 15 -21 15 -53 0 -26 5 -52 12 -59 9 -9 9
-12 0 -12 -7 0 -12 5 -12 10 0 6 -7 10 -15 10 -8 0 -15 5 -15 10 0 6 -22 33
-50 60 -27 28 -54 50 -60 50 -5 0 -10 5 -10 10 0 11 -96 110 -106 110 -3 0
-15 11 -26 25 -11 14 -28 25 -39 25 -10 0 -19 5 -19 11 0 11 -25 39 -35 39 -3
0 -21 16 -39 35 -19 19 -39 35 -45 35 -6 0 -27 16 -45 35 -19 19 -38 35 -43
35 -4 0 -20 11 -35 25 -15 14 -32 25 -38 25 -5 0 -10 3 -10 8 0 4 -16 16 -35
26 -19 11 -35 23 -35 28 0 4 -6 8 -13 8 -7 0 -24 11 -39 25 -15 14 -33 25 -40
25 -7 0 -24 12 -37 25 -13 14 -32 25 -42 25 -10 0 -19 5 -19 10 0 6 -6 10 -14
10 -8 0 -16 7 -20 15 -3 8 -12 15 -21 15 -8 0 -15 5 -15 10 0 6 -11 10 -24 10
-13 0 -26 7 -30 15 -3 8 -15 15 -26 15 -11 0 -20 5 -20 10 0 6 -7 10 -15 10
-8 0 -15 5 -15 10 0 6 -9 10 -20 10 -11 0 -20 4 -20 10 0 5 -11 12 -25 16 -14
3 -25 10 -25 15 0 5 -9 9 -21 9 -11 0 -27 7 -35 15 -22 22 -105 20 -132 -4
-18 -15 -22 -29 -22 -79 0 -51 3 -62 19 -67 11 -3 22 -12 25 -20 3 -8 15 -15
26 -15 11 0 20 -4 20 -10 0 -5 11 -10 25 -10 14 0 25 -4 25 -10 0 -5 11 -10
25 -10 14 0 25 -6 25 -13 0 -7 16 -19 35 -26 19 -7 35 -16 35 -21 0 -4 11 -11
25 -14 14 -4 25 -11 25 -16 0 -6 9 -10 20 -10 12 0 33 -11 48 -25 15 -14 32
-25 39 -25 7 0 13 -4 13 -10 0 -5 11 -10 25 -10 14 0 25 -5 25 -11 0 -16 26
-39 44 -39 9 0 32 -16 52 -35 19 -19 40 -35 45 -35 6 0 20 -11 33 -25 13 -14
31 -25 40 -25 19 0 46 -23 46 -39 0 -6 5 -11 10 -11 6 0 22 -11 36 -25 14 -14
29 -25 35 -25 5 0 31 -21 58 -47 26 -27 64 -59 84 -73 20 -14 37 -28 37 -32 0
-5 7 -8 15 -8 8 0 15 -5 15 -11 0 -14 25 -39 39 -39 6 0 11 -5 11 -10 0 -14
46 -60 60 -60 5 0 10 -5 10 -11 0 -14 25 -39 39 -39 6 0 11 -5 11 -10 0 -14
46 -60 60 -60 5 0 10 -5 10 -10 0 -10 8 -22 38 -55 6 -7 12 -23 12 -34 0 -21
-4 -21 -205 -21 -130 0 -205 4 -205 10 0 6 -15 10 -34 10 -19 0 -38 5 -41 10
-3 6 -17 10 -31 10 -13 0 -24 3 -24 8 0 8 -57 42 -70 42 -5 0 -21 12 -37 28
-16 15 -47 42 -68 59 l-39 33 -162 0 c-131 0 -164 3 -174 15 -7 8 -25 15 -41
15 -15 0 -31 5 -34 10 -3 6 -19 10 -36 10 -16 0 -29 5 -29 10 0 6 -5 10 -10
10 -13 0 -28 12 -88 72 -60 60 -72 75 -72 88 0 5 -4 10 -10 10 -5 0 -10 11
-10 25 0 14 -4 25 -10 25 -5 0 -10 11 -10 24 0 14 -7 31 -15 40 -16 16 -21
106 -6 106 5 0 13 10 17 23 4 12 15 29 25 38 11 9 19 20 19 23 0 4 7 14 15 22
9 9 15 34 15 60 0 32 -4 44 -15 44 -8 0 -15 6 -15 13 0 17 -47 37 -87 37 -18
0 -33 4 -33 10 0 5 -16 17 -35 26 -19 9 -35 20 -35 25 0 5 -11 9 -25 9 -16 0
-25 6 -25 15 0 8 -4 15 -10 15 -5 0 -10 9 -10 20 0 11 -4 20 -10 20 -5 0 -10
6 -10 14 0 7 -7 19 -15 26 -20 16 -22 193 -2 216 6 8 18 21 25 29 6 7 12 18
12 24 0 6 11 11 25 11 14 0 25 4 25 9 0 19 235 18 254 0z" />
        <path d="M1455 2500 c-3 -5 -17 -10 -30 -10 -13 0 -30 -7 -39 -15 -8 -8 -24
-15 -35 -15 -12 0 -21 -4 -21 -10 0 -5 -7 -10 -15 -10 -9 0 -21 -11 -27 -25
-6 -14 -15 -25 -20 -25 -14 0 -9 -59 7 -90 9 -18 24 -30 35 -30 11 0 20 -4 20
-10 0 -5 16 -10 35 -10 19 0 35 5 35 10 0 6 11 10 25 10 14 0 25 4 25 9 0 5
11 12 25 15 14 4 25 11 25 16 0 6 50 10 125 10 149 0 165 8 165 80 0 34 -6 50
-24 68 -13 12 -31 22 -40 22 -9 0 -16 5 -16 10 0 6 -48 10 -124 10 -73 0 -127
-4 -131 -10z" />
        <path d="M2658 2112 c-25 -15 -28 -23 -28 -70 0 -51 14 -82 38 -82 6 0 12 -7
16 -15 4 -11 22 -15 70 -15 36 0 68 -4 71 -10 3 -5 19 -10 36 -10 16 0 29 -4
29 -10 0 -5 7 -10 15 -10 8 0 15 -5 15 -11 0 -11 25 -39 35 -39 4 0 13 -7 21
-15 9 -9 34 -15 60 -15 32 0 44 4 44 15 0 8 5 15 11 15 20 0 38 34 39 72 0 31
-8 46 -49 88 -27 27 -56 50 -65 50 -9 0 -19 7 -22 15 -4 8 -17 15 -30 15 -13
0 -24 5 -24 10 0 6 -10 10 -22 10 -13 0 -32 7 -42 15 -29 22 -182 20 -218 -3z" />
    </g>
</svg>